<?xml version="1.0" encoding="UTF-8" standalone="no"?>
<!DOCTYPE svg PUBLIC "-//W3C//DTD SVG 1.1//EN" "http://www.w3.org/Graphics/SVG/1.1/DTD/svg11.dtd">
<svg version="1.1" xmlns="http://www.w3.org/2000/svg" xmlns:xlink="http://www.w3.org/1999/xlink" preserveAspectRatio="xMidYMid meet" viewBox="0 0 640 640" width="1000" height="1000" id="uno">
<defs>
<path d="M367.35 244.83C470.71 309.41 530.88 399.85 501.63 446.66C472.38 493.46 364.72 479.02 261.36 414.44C158.01 349.85 97.84 259.41 127.08 212.61C156.33 165.8 263.99 180.24 367.35 244.83Z" id="a2uPvUAhFy">
</path>
<path d="M139.69 181.06C150.74 181.06 159.69 191.82 159.69 205.08C159.69 241.82 119.69 260.05 119.69 261.06C119.69 261.06 119.69 261.06 119.69 261.06C119.69 260.05 79.69 241.82 79.69 205.08C79.69 191.81 88.65 181.06 99.69 181.06C110.74 181.06 119.69 190.48 119.69 203.75C119.69 190.48 128.64 181.06 139.69 181.06Z" id="d5giPFX1HB">
</path>
<path d="M379.96 407.3C287.98 487.27 183.9 518.37 147.69 476.71C111.48 435.06 156.76 336.32 248.75 256.36C340.73 176.4 444.81 145.3 481.02 186.95C517.23 228.61 471.95 327.34 379.96 407.3Z" id="iK5lS83rR">
</path>
<path d="M414.36 331.83C414.36 453.71 369.55 552.67 314.36 552.67C259.16 552.67 214.36 453.71 214.36 331.83C214.36 209.95 259.16 111 314.36 111C369.55 111 414.36 209.95 414.36 331.83Z" id="a1qrZ95JRH">
</path>
<path d="M510.03 409.93L510.08 409.94L510.13 409.94L510.18 409.95L510.24 409.96L510.29 409.98L510.34 409.99L510.39 410.01L510.43 410.03L510.48 410.05L510.53 410.08L510.57 410.1L510.62 410.13L510.66 410.15L510.7 410.18L510.74 410.21L510.78 410.25L510.82 410.28L510.86 410.32L510.89 410.35L510.93 410.39L510.96 410.43L510.99 410.47L511.02 410.51L511.05 410.56L511.08 410.6L511.1 410.65L511.12 410.69L511.14 410.74L511.16 410.79L511.18 410.84L511.2 410.89L511.21 410.94L511.22 410.99L511.23 411.04L511.24 411.1L511.24 411.15L511.25 411.2L511.25 411.26L511.25 437.93L537.92 437.93L537.97 437.93L538.03 437.93L538.08 437.94L538.13 437.94L538.18 437.95L538.24 437.96L538.29 437.98L538.34 437.99L538.39 438.01L538.43 438.03L538.48 438.05L538.53 438.08L538.57 438.1L538.62 438.13L538.66 438.15L538.7 438.18L538.74 438.21L538.78 438.25L538.82 438.28L538.86 438.32L538.89 438.35L538.93 438.39L538.96 438.43L538.99 438.47L539.02 438.51L539.05 438.56L539.08 438.6L539.1 438.65L539.12 438.69L539.14 438.74L539.16 438.79L539.18 438.84L539.2 438.89L539.21 438.94L539.22 438.99L539.23 439.04L539.24 439.1L539.24 439.15L539.25 439.2L539.25 439.26L539.25 460.59L539.25 460.65L539.24 460.7L539.24 460.76L539.23 460.81L539.22 460.86L539.21 460.91L539.2 460.96L539.18 461.01L539.16 461.06L539.14 461.11L539.12 461.16L539.1 461.21L539.08 461.25L539.05 461.3L539.02 461.34L538.99 461.38L538.96 461.42L538.93 461.46L538.89 461.5L538.86 461.54L538.82 461.57L538.78 461.61L538.74 461.64L538.7 461.67L538.66 461.7L538.62 461.73L538.57 461.75L538.53 461.78L538.48 461.8L538.43 461.82L538.39 461.84L538.34 461.86L538.29 461.87L538.24 461.89L538.18 461.9L538.13 461.91L538.08 461.92L538.03 461.92L537.97 461.93L537.92 461.93L511.25 461.93L511.25 488.59L511.25 488.65L511.24 488.7L511.24 488.76L511.23 488.81L511.22 488.86L511.21 488.91L511.2 488.96L511.18 489.01L511.16 489.06L511.14 489.11L511.12 489.16L511.1 489.21L511.08 489.25L511.05 489.3L511.02 489.34L510.99 489.38L510.96 489.42L510.93 489.46L510.89 489.5L510.86 489.54L510.82 489.57L510.78 489.61L510.74 489.64L510.7 489.67L510.66 489.7L510.62 489.73L510.57 489.75L510.53 489.78L510.48 489.8L510.43 489.82L510.39 489.84L510.34 489.86L510.29 489.87L510.24 489.89L510.18 489.9L510.13 489.91L510.08 489.92L510.03 489.92L509.97 489.93L509.92 489.93L488.58 489.93L488.53 489.93L488.47 489.92L488.42 489.92L488.37 489.91L488.31 489.9L488.26 489.89L488.21 489.87L488.16 489.86L488.11 489.84L488.06 489.82L488.02 489.8L487.97 489.78L487.92 489.75L487.88 489.73L487.84 489.7L487.8 489.67L487.75 489.64L487.72 489.61L487.68 489.57L487.64 489.54L487.6 489.5L487.57 489.46L487.54 489.42L487.51 489.38L487.48 489.34L487.45 489.3L487.42 489.25L487.4 489.21L487.38 489.16L487.35 489.11L487.33 489.06L487.32 489.01L487.3 488.96L487.29 488.91L487.28 488.86L487.27 488.81L487.26 488.76L487.25 488.7L487.25 488.65L487.25 488.59L487.25 461.93L460.58 461.93L460.53 461.93L460.47 461.92L460.42 461.92L460.37 461.91L460.31 461.9L460.26 461.89L460.21 461.87L460.16 461.86L460.11 461.84L460.06 461.82L460.02 461.8L459.97 461.78L459.92 461.75L459.88 461.73L459.84 461.7L459.8 461.67L459.75 461.64L459.72 461.61L459.68 461.57L459.64 461.54L459.6 461.5L459.57 461.46L459.54 461.42L459.51 461.38L459.48 461.34L459.45 461.3L459.42 461.25L459.4 461.21L459.38 461.16L459.35 461.11L459.33 461.06L459.32 461.01L459.3 460.96L459.29 460.91L459.28 460.86L459.27 460.81L459.26 460.76L459.25 460.7L459.25 460.65L459.25 460.59L459.25 439.26L459.25 439.2L459.25 439.15L459.26 439.1L459.27 439.04L459.28 438.99L459.29 438.94L459.3 438.89L459.32 438.84L459.33 438.79L459.35 438.74L459.38 438.69L459.4 438.65L459.42 438.6L459.45 438.56L459.48 438.51L459.51 438.47L459.54 438.43L459.57 438.39L459.6 438.35L459.64 438.32L459.68 438.28L459.72 438.25L459.75 438.21L459.8 438.18L459.84 438.15L459.88 438.13L459.92 438.1L459.97 438.08L460.02 438.05L460.06 438.03L460.11 438.01L460.16 437.99L460.21 437.98L460.26 437.96L460.31 437.95L460.37 437.94L460.42 437.94L460.47 437.93L460.53 437.93L460.58 437.93L487.25 437.93L487.25 411.26L487.25 411.2L487.25 411.15L487.26 411.1L487.27 411.04L487.28 410.99L487.29 410.94L487.3 410.89L487.32 410.84L487.33 410.79L487.35 410.74L487.38 410.69L487.4 410.65L487.42 410.6L487.45 410.56L487.48 410.51L487.51 410.47L487.54 410.43L487.57 410.39L487.6 410.35L487.64 410.32L487.68 410.28L487.72 410.25L487.75 410.21L487.8 410.18L487.84 410.15L487.88 410.13L487.92 410.1L487.97 410.08L488.02 410.05L488.06 410.03L488.11 410.01L488.16 409.99L488.21 409.98L488.26 409.96L488.31 409.95L488.37 409.94L488.42 409.94L488.47 409.93L488.53 409.93L488.58 409.93L509.92 409.93L509.97 409.93L510.03 409.93Z" id="c17tSHgGWt">
</path>
<path d="M492.94 134.61C490.58 137.26 488.85 140.06 487.49 143.48C486.46 146.07 485.64 149.24 485.31 151.92C485.3 151.97 485.27 152.21 485.21 152.66C484.83 151.97 484.62 151.58 484.58 151.51C480.74 144.56 474.85 139.68 468.01 137.77C463.26 136.44 458.47 136.33 454.33 137.43C453.08 137.76 451.42 138.39 451.42 138.54C451.42 138.72 453.62 141.29 455.2 142.95C457.86 145.75 460.52 147.97 463 149.5C464.69 150.53 465.77 151.02 467.47 151.49C468.49 151.78 468.49 151.78 468.17 151.84C467.99 151.87 467.28 151.98 466.6 152.08C457.1 153.59 450.6 159.34 448.46 168.16C447.8 170.86 447.63 172.49 447.64 176.28C447.64 179.19 447.7 180.46 447.94 183.12C449.27 197.85 454.7 212.25 462.47 221.62C463.47 222.83 465.66 225.02 466.68 225.83C468.89 227.6 471.06 228.68 473.06 229.03C473.63 229.13 474.05 229.15 475.2 229.12C478.24 229.02 479.73 228.69 482.72 227.5C484.73 226.7 485.65 226.51 487.64 226.51C489.62 226.51 490.55 226.7 492.56 227.5C495.54 228.69 497.04 229.02 500.07 229.12C501.22 229.15 501.64 229.13 502.21 229.03C504.21 228.68 506.38 227.59 508.6 225.83C509.61 225.02 511.81 222.83 512.81 221.62C519.22 213.88 524.07 202.73 526.32 190.52C527.23 185.59 527.64 181.21 527.64 176.24C527.64 173.12 527.58 172.15 527.23 170.1C525.68 160.94 519.98 154.8 510.97 152.54C509.85 152.26 508.13 151.96 506.76 151.81C505.47 151.66 501.51 151.68 500.34 151.84C498.61 152.08 497.97 152.26 494.76 153.27C493.43 153.7 492.08 154.01 491.02 154.14C490.71 154.17 490.45 154.2 490.43 154.19C490.39 154.15 490.67 152.03 490.84 151.07C491.81 145.77 493.96 141.33 497.21 137.86C498.09 136.93 498.27 136.54 498.27 135.63C498.27 135.05 498.24 134.89 498.07 134.52C497.64 133.62 496.8 133.04 495.8 133C495.51 132.98 495.2 132.98 495.11 133.01C494.36 133.2 493.9 133.54 492.94 134.61ZM485.08 154.12C485.08 154.18 485.04 154.23 484.99 154.23C484.78 154.23 482.79 153.91 482.75 153.87C482.72 153.83 484.23 153.9 484.77 153.97C484.97 153.99 485.08 154.05 485.08 154.12Z" id="beu1EaMXk">
</path>
<path d="M137.53 413.38C136.17 413.9 136.21 413.9 135.69 413.41C135.18 412.95 135.02 412.89 134.58 413.01C133.82 413.22 133.31 413.63 132.71 414.52C131.98 415.61 131.96 416.82 132.66 417.86C132.67 417.88 132.75 418 132.89 418.21L133.46 418.17L134.01 418.12C134.01 418.32 134.01 418.44 134.01 418.46C134.01 418.98 134.14 419.69 134.31 420.26C134.42 420.65 134.54 420.83 134.84 421.15C135.35 421.69 135.38 421.78 135.38 422.44C135.38 422.94 135.4 423.05 135.57 423.29C135.98 423.9 136.06 424.51 135.82 425.28C135.74 425.52 135.58 425.88 135.45 426.06C135.24 426.37 135.17 426.42 134.87 426.45C134.58 426.5 134.51 426.53 134.38 426.76C134.29 426.89 134.2 426.99 134.16 426.97C134.12 426.94 133.93 426.99 133.75 427.07C133.57 427.15 133.29 427.22 133.13 427.22C132.85 427.22 132.53 427.35 131.63 427.86C131.6 427.88 131.44 427.96 131.16 428.12C130.58 428.12 130.25 428.12 130.19 428.12C129.09 428.13 129.04 428.14 127.86 428.83C126.79 429.46 126.71 429.48 125.03 429.45C123.01 429.41 122.44 429.43 121.83 429.57C120.91 429.77 117.07 431.1 116.3 431.47C115.43 431.91 114.52 432.58 113.61 433.46C113.57 433.51 113.35 433.72 112.95 434.11C112.98 434.33 112.99 434.45 112.99 434.47C113.02 434.67 113.1 435 113.18 435.22C113.25 435.43 113.4 436.08 113.53 436.66C113.77 437.87 114.25 439.42 114.77 440.67C114.96 441.15 115.62 442.51 116.23 443.7C117.98 447.18 118.61 448.55 118.61 448.89C118.6 449.05 118.5 449.49 118.37 449.87C117.89 451.37 117.66 452.61 117.75 453.26C117.82 453.8 117.99 454.23 118.22 454.45C118.23 454.46 118.3 454.53 118.43 454.66C118.59 454.57 118.68 454.53 118.7 454.52C118.85 454.44 119 454.37 119.03 454.35C119.06 454.34 119 454.58 118.88 454.89C118.87 454.93 118.8 455.12 118.68 455.46C118.77 455.61 118.82 455.7 118.83 455.72C119.1 456.21 119.15 456.23 119.35 456.07C119.63 455.85 119.72 455.89 119.75 456.23C119.76 456.48 119.81 456.56 120.01 456.7C120.32 456.91 120.33 456.91 120.62 456.65C120.85 456.44 120.86 456.44 120.94 456.58C121.04 456.74 121.48 456.77 121.79 456.63C121.95 456.56 121.97 456.51 121.97 456.13C121.97 455.5 122 455.46 122.31 455.72C122.46 455.84 122.77 456.02 123.01 456.12C123.03 456.13 123.18 456.19 123.43 456.3C123.54 456.21 123.61 456.17 123.62 456.16C123.86 455.98 123.83 455.76 123.55 455.42C122.95 454.71 122.72 453.92 122.93 453.28C123.01 453.03 123.02 452.9 122.96 452.76C122.93 452.66 122.87 452.1 122.83 451.52C122.77 450.43 122.7 450.14 122.39 449.76C122.11 449.43 122.05 449.28 121.96 448.7C121.75 447.34 121.56 446.75 121.04 445.75C119.79 443.36 119.35 442.01 119.08 439.7C119 439 118.88 438.14 118.81 437.78C118.63 436.7 118.61 436.29 118.76 436.15C119 435.95 119.37 435.87 120.05 435.87C120.41 435.87 121.27 435.81 121.97 435.73C124.17 435.48 124.1 435.48 124.74 435.69C125.31 435.88 125.45 435.89 128.03 436.09C128.52 436.13 129.07 436.2 129.25 436.26C129.27 436.26 129.38 436.29 129.58 436.35C129.71 436.82 129.79 437.08 129.81 437.14C130.47 439.39 131.29 442.18 131.42 442.7C131.51 443.05 131.68 443.45 131.83 443.68C132.04 444.02 132.07 444.1 132.03 444.39C132 444.64 132.05 444.95 132.22 445.58C132.54 446.81 132.53 447.16 132.1 448.37C131.91 448.89 131.68 449.58 131.58 449.9C131.49 450.22 131.38 450.55 131.34 450.63C131.31 450.72 130.94 451.05 130.52 451.38C129.24 452.37 128.59 453.03 128.3 453.63C128.16 453.92 127.85 454.47 127.59 454.84C127.02 455.73 126.82 456.11 126.58 456.86C126.47 457.2 126.31 457.67 126.22 457.91C126.09 458.25 126.06 458.51 126.04 459.13C126.03 459.92 126.03 459.94 125.7 460.61C125.51 460.98 125.36 461.33 125.36 461.38C125.36 461.5 124.9 461.87 123.91 462.51C123.22 462.96 122.88 463.26 121.86 464.3C120.43 465.76 120.22 466.02 119.2 467.62C117.96 469.59 117.5 470.27 116.82 471.22C115.95 472.41 114.8 473.78 114.53 473.95C114.41 474.02 114.11 474.12 113.87 474.17C113.2 474.3 112.31 474.56 110.54 475.13C109.15 475.58 108.88 475.64 108.37 475.65C108.33 475.65 108.14 475.65 107.79 475.66C106.82 476.13 106.28 476.39 106.17 476.44C104.52 477.23 104.18 477.43 103.86 477.82C103.45 478.32 103.21 478.48 102.38 478.82C101.05 479.36 99.64 480.04 98.93 480.51C98.21 480.97 94.8 482.47 94.12 482.63C93.91 482.67 93.61 482.79 93.47 482.89C93.3 482.99 92.93 483.1 92.42 483.2C91.99 483.27 91.61 483.35 91.56 483.36C91.53 483.38 91.43 483.36 91.35 483.31C91.27 483.27 91.06 483.23 90.88 483.23C90.32 483.2 89.67 483.01 89.39 482.78C89.02 482.48 88.74 482.4 87.81 482.33C86.98 482.27 86.83 482.3 86.73 482.6C86.71 482.68 86.59 482.76 86.46 482.81C86.33 482.86 86.13 482.97 86.02 483.06C85.75 483.28 85.65 483.92 85.55 486.05C85.45 487.97 85.43 488.09 84.78 489.46C83.55 492.1 83.38 492.64 83.23 494.41C83.14 495.41 83.18 497.08 83.31 497.8C83.41 498.33 83.68 498.83 83.91 498.88C84.02 498.91 84.2 498.86 84.39 498.77C84.72 498.6 84.92 498.26 85.01 497.69C85.09 497.21 86.04 495.36 86.64 494.51C86.95 494.1 87.32 493.52 87.48 493.21C87.64 492.91 87.87 492.59 87.99 492.51C88.11 492.41 88.3 492.22 88.4 492.07C88.5 491.91 88.68 491.74 88.79 491.7C88.91 491.65 89.07 491.49 89.15 491.35C89.31 491.07 89.99 490.43 90.06 490.5C90.08 490.52 89.97 490.83 89.83 491.2C89.63 491.7 89.55 492.01 89.54 492.39C89.52 492.66 89.51 492.91 89.51 492.93C89.51 492.96 89.4 493.03 89.26 493.09C89.25 493.09 89.17 493.13 89.03 493.2C88.97 493.69 88.94 493.97 88.94 494.02C88.86 494.75 88.77 495.34 88.67 495.88C88.67 495.9 88.66 495.96 88.64 496.06C88.7 495.96 88.73 495.9 88.74 495.88C88.83 495.73 89.04 494.89 89.26 493.81C89.29 493.64 89.36 493.56 89.57 493.48C89.59 493.47 89.68 493.44 89.85 493.37C89.88 493.02 89.89 492.83 89.9 492.79C89.92 492.48 90.01 492.02 90.07 491.79C90.08 491.77 90.13 491.63 90.21 491.38C90.24 491.57 90.26 491.68 90.26 491.7C90.37 492.3 90.55 492.54 90.99 492.64C91.2 492.69 91.28 492.67 91.46 492.52C91.66 492.35 91.76 491.99 91.61 491.99C91.57 491.99 91.49 491.97 91.43 491.95C91.36 491.92 91.31 491.97 91.28 492.09C91.26 492.19 91.19 492.28 91.12 492.28C90.98 492.28 90.66 491.95 90.66 491.8C90.66 491.74 90.79 491.46 90.93 491.17C91.2 490.66 91.55 490.24 91.88 490.03C92.05 489.93 92.05 489.93 91.94 489.57C91.87 489.38 91.82 489.13 91.82 489C91.82 488.79 91.83 488.77 92.33 488.66C92.62 488.58 93.32 488.3 93.94 487.99C95.23 487.35 95.53 487.24 95.82 487.3C95.99 487.34 96.08 487.31 96.25 487.15C96.38 487.03 96.87 486.8 97.48 486.58C99.09 485.98 99.46 485.87 100.56 485.68C102.04 485.41 104.26 484.8 108.25 483.59C109.89 483.08 110.25 482.94 110.37 482.79C110.57 482.53 110.89 482.42 112.05 482.17C112.6 482.05 113.48 481.83 114 481.67C114.99 481.36 115.78 481.25 116.2 481.36C116.41 481.42 116.55 481.4 117.03 481.23C118.01 480.87 118.24 480.71 118.69 480.05C118.97 479.65 119.22 479.39 119.43 479.26C119.62 479.14 119.96 478.88 120.2 478.67C120.77 478.18 122.54 477.05 123.32 476.67C123.98 476.36 129.24 472.9 130.37 472.05C131.24 471.39 131.71 470.99 132.79 469.99C133.85 469.02 134.32 468.62 134.44 468.62C134.48 468.62 134.81 468.78 135.15 468.97C136.34 469.65 137.14 469.99 138.09 470.23C138.61 470.36 139.36 470.6 139.76 470.73C140.73 471.07 141.69 471.28 144.26 471.72C147.13 472.21 148.05 472.41 149.25 472.84C149.9 473.08 150.72 473.5 150.93 473.7C151.15 473.92 151.15 474.04 150.95 475.26C150.8 476.14 150.78 476.25 150.58 476.43C150.42 476.58 150.34 476.75 150.26 477.11C150.21 477.38 150.1 477.71 150.02 477.84C149.82 478.17 149.56 479.09 149.41 479.98C149.32 480.51 149.3 480.89 149.34 481.42C149.4 482.3 149.32 482.84 148.73 485.48C148.5 486.54 148.16 488.15 147.97 489.07C147.79 489.98 147.59 490.81 147.54 490.91C147.41 491.14 147.28 491.85 147.28 492.34C147.28 492.71 147.12 493.4 146.62 495.15C146.53 495.44 146.43 495.7 146.37 495.72C146.32 495.74 146.18 495.72 146.06 495.68C145.93 495.63 145.83 495.63 145.81 495.67C145.78 495.71 145.7 495.74 145.63 495.74C145.55 495.74 145.4 495.93 145.21 496.27C144.79 497.02 144.62 497.56 144.57 498.22C144.55 498.55 144.49 499.09 144.43 499.45C144.29 500.23 144.33 500.46 144.67 500.93C145.01 501.37 145.29 501.53 145.99 501.68C146.29 501.73 146.89 501.94 147.33 502.14C147.76 502.35 148.25 502.53 148.4 502.56C148.56 502.58 149.16 502.88 149.74 503.2C151.58 504.25 152.27 504.54 153.28 504.68C153.57 504.73 153.84 504.79 153.88 504.83C153.92 504.87 154.05 504.9 154.17 504.9C154.29 504.91 154.69 504.96 155.06 505.04C155.68 505.16 155.83 505.17 157.22 505.08C159.04 504.96 159.24 504.91 159.55 504.37C159.67 504.16 159.76 503.93 159.76 503.84C159.76 503.63 159.08 502.86 158.84 502.79C158.73 502.76 158.19 502.66 157.63 502.58C156 502.35 156 502.35 155.18 501.29C154.91 500.93 154.73 500.78 154.41 500.63C154.06 500.46 153.99 500.39 153.93 500.16C153.88 500.01 153.85 499.85 153.85 499.81C153.85 499.76 153.75 499.68 153.62 499.63C153.27 499.48 153.13 499.17 153.06 498.4C152.98 497.56 152.91 497.38 152.59 497.19C152.45 497.1 152.14 496.77 151.9 496.45C151.87 496.42 151.73 496.22 151.47 495.88C151.53 495.46 151.56 495.22 151.57 495.18C151.63 494.79 151.69 494.28 151.72 494.04C151.75 493.81 151.8 493.58 151.84 493.53C151.87 493.49 151.93 493.21 151.97 492.93C152.02 492.63 152.3 491.61 152.62 490.65C152.94 489.7 153.37 488.35 153.59 487.66C153.88 486.72 154.14 486.07 154.61 485.16C154.94 484.47 155.22 483.87 155.22 483.82C155.22 483.59 155.6 482.48 156 481.52C156.46 480.41 156.75 479.53 156.84 479.02C156.88 478.78 156.86 478.68 156.78 478.58C156.67 478.46 156.68 478.4 157.01 477.77C157.33 477.15 157.53 476.59 158.15 474.57C158.38 473.78 158.44 473.65 158.9 473.03C159.74 471.87 159.67 470.93 158.6 469.51C157.84 468.5 156.88 467.42 156.5 467.16C154.75 465.92 152.68 464.53 151.47 463.77C150.51 463.17 149.98 462.91 148.3 462.19C146.3 461.32 145.27 460.77 144.15 459.96C143.01 459.15 142.19 458.72 141.54 458.59C141.3 458.54 141.06 458.48 141.01 458.45C140.84 458.34 141 457.89 141.41 457.39C141.82 456.88 141.9 456.69 141.98 456.13C142.01 455.92 142.1 455.69 142.21 455.57C142.44 455.29 142.64 454.41 142.78 453C142.96 451.03 143.09 450.62 143.69 449.96C144.18 449.42 144.51 448.85 144.83 448.03C145.08 447.36 145.48 445.83 145.66 444.78C145.78 444.1 145.81 444.04 146.12 443.69C146.35 443.45 146.57 443.08 146.79 442.59C146.97 442.18 147.13 441.85 147.17 441.85C147.3 441.85 150 446.09 150.8 447.56C151.25 448.38 151.33 448.48 151.68 448.69C152.15 448.97 153.78 449.58 154.07 449.58C154.55 449.58 154.87 449.27 156.06 447.7C157.17 446.24 157.42 445.86 157.97 444.74C158.51 443.63 158.65 443.2 158.98 441.5C159.33 439.63 159.79 438.24 160.34 437.38C160.51 437.12 160.62 437.03 160.86 436.95C161.29 436.83 161.69 436.54 162.11 436.04C162.3 435.81 162.59 435.51 162.76 435.38C162.94 435.22 163.07 435.04 163.13 434.83C163.21 434.56 163.2 434.52 163.04 434.29C162.89 434.07 162.87 433.98 162.91 433.67C162.95 433.35 162.93 433.28 162.76 433.07C162.58 432.87 162.57 432.82 162.65 432.59C162.75 432.28 162.73 432.25 162.24 431.93C161.87 431.69 161.85 431.68 161.96 431.52C162.26 431.1 162 430.67 161.35 430.53C161.13 430.48 161.04 430.51 160.59 430.79C160.32 430.96 160.01 431.18 159.91 431.29C159.7 431.52 159.62 431.52 159.4 431.29C159.31 431.19 159.19 431.11 159.14 431.11C159.09 431.11 158.89 431.34 158.69 431.6C158.34 432.07 157.83 432.58 157.45 432.85C157.27 432.97 157.27 433 157.26 434.25C157.25 435.3 157.22 435.62 157.1 436.01C157.02 436.27 156.88 436.8 156.78 437.18C156.56 438.03 155.41 440.27 154.83 440.99C154.62 441.25 154.39 441.56 154.32 441.68C154.11 442.02 153.83 442.29 153.71 442.29C153.64 442.29 153.49 442.06 153.32 441.65C153.17 441.3 152.77 440.51 152.43 439.91C151.54 438.32 150.93 437.02 150.71 436.28C150.5 435.55 150.49 435.4 150.64 435.15C150.87 434.76 150.75 434.17 150.18 432.99C150.02 432.64 149.87 432.2 149.84 431.98C149.74 431.24 148.86 429.77 147.81 428.63C147.79 428.6 147.66 428.47 147.44 428.23C147.12 428.23 146.94 428.23 146.91 428.23C145.91 428.23 144.9 427.86 144.9 427.49C144.9 427.4 145.08 427.16 145.38 426.86C145.81 426.44 145.86 426.37 145.82 426.16C145.78 425.96 145.82 425.89 146.07 425.63C146.3 425.41 146.35 425.3 146.32 425.18C146.29 425.09 146.25 424.84 146.22 424.64C146.19 424.28 146.2 424.25 146.45 423.97C146.59 423.81 146.71 423.66 146.71 423.64C146.71 423.61 146.57 423.17 146.4 422.66C146.16 421.89 146.12 421.7 146.19 421.61C146.4 421.32 146.49 420.99 146.49 420.57C146.49 420.26 146.53 420.06 146.64 419.86C146.65 419.84 146.7 419.75 146.79 419.59C146.7 419.42 146.65 419.32 146.64 419.3C146.56 419.14 146.32 418.5 146.11 417.86C145.63 416.46 145.42 416.05 144.95 415.55C144.54 415.11 143.73 414.48 143.27 414.25C143.1 414.16 142.86 413.95 142.73 413.77C142.49 413.43 142.3 413.35 141.8 413.38C141.67 413.38 141.24 413.29 140.86 413.15C140.12 412.9 139.26 412.81 138.76 412.94C138.61 412.97 138.06 413.17 137.53 413.38Z" id="cuLzszg5i">
</path>
<path d="M63.98 48.68C64.19 48.66 64.3 48.65 64.33 48.65C64.67 48.62 65.01 48.5 65.01 48.4C65.01 48.38 64.86 48.36 64.69 48.36C64.43 48.36 64.32 48.39 64.17 48.52C64.14 48.54 64.08 48.6 63.98 48.68Z" id="b50ZeWrHzx">
</path>
<path d="M46.18 51.22C46.53 51.65 46.7 51.78 46.7 51.61C46.7 51.47 46.51 50.83 46.42 50.69C46.31 50.54 46.28 50.52 46.14 50.6C46.01 50.69 46.03 51.05 46.18 51.22Z" id="bzxGYZY5w">
</path>
<path d="M11.72 42.68C11.71 42.68 11.65 42.71 11.54 42.75C11.63 42.79 11.68 42.81 11.69 42.82C11.79 42.87 11.91 42.85 12.18 42.76C12.37 42.7 12.51 42.61 12.5 42.58C12.48 42.5 11.89 42.49 11.89 42.56C11.89 42.59 11.81 42.64 11.72 42.68Z" id="a1eM99rIR7">
</path>
<path d="M34.34 47.5C34.55 47.26 34.07 46.83 33.51 46.75C33.49 46.75 33.4 46.74 33.25 46.72L33.65 47.12C34.03 47.47 34.26 47.59 34.34 47.5Z" id="c97dU6Dtu">
</path>
<path d="M7.73 48.68C7.73 48.4 7.71 48.27 7.63 48.19C7.52 48.09 7.51 48.1 7.51 48.52C7.51 49.22 7.71 49.37 7.73 48.68Z" id="j33DB3Zq0S">
</path>
<path d="M24.95 51.19C24.95 51.27 25.47 51.24 25.66 51.15C25.99 51 25.79 50.87 25.36 50.97C25.17 51 24.95 51.12 24.95 51.19Z" id="i30PLbpvHG">
</path>
<path d="M30.45 51.73C30.14 51.81 30.09 51.83 29.51 52.1C29.28 52.21 29.04 52.36 28.98 52.43C28.97 52.44 28.93 52.48 28.86 52.56C29.03 52.53 29.12 52.52 29.14 52.52C29.29 52.49 29.45 52.45 29.48 52.44C29.52 52.41 29.58 52.39 29.61 52.39C29.71 52.39 30.16 52.15 30.53 51.91C30.72 51.78 30.91 51.67 30.94 51.67C30.98 51.67 31.01 51.64 31.01 51.61C31.01 51.54 30.88 51.53 30.79 51.6C30.76 51.63 30.61 51.69 30.45 51.73Z" id="b21ebRZUt7">
</path>
<path d="M5.62 52.02C5.48 52.04 5.33 52.08 5.29 52.1C5.26 52.13 5.13 52.19 5.01 52.24C4.79 52.32 4.45 52.59 4.45 52.69C4.45 52.75 5.06 52.75 5.11 52.68C5.13 52.65 5.22 52.6 5.32 52.58C5.53 52.54 6.34 51.88 6.29 51.8C6.24 51.71 6.19 51.72 6.03 51.85C5.95 51.92 5.77 51.99 5.62 52.02Z" id="drOUlqmhp">
</path>
<path d="M37.2 52.45C37.2 52.53 37.5 52.44 37.77 52.26C38.15 52.02 38.05 51.9 37.61 52.06C37.43 52.13 37.21 52.34 37.2 52.45Z" id="bIQI2XxvT">
</path>
<path d="M9.74 53.12C9.84 53.2 10.09 53.22 10.29 53.14C10.77 52.97 10.86 52.93 10.87 52.88C10.91 52.77 9.78 52.67 9.68 52.78C9.61 52.85 9.64 53.03 9.74 53.12Z" id="aDk7aqALe">
</path>
<path d="M307.56 77.31C307.46 77.35 307.53 77.4 307.92 77.59C308.19 77.72 308.59 77.94 308.79 78.09C309.31 78.45 310 79.2 310.27 79.68C310.39 79.89 310.52 80.07 310.55 80.07C310.73 80.07 311.42 79.56 311.96 79.03C312.65 78.35 313.13 78.09 314.01 77.9C314.05 77.9 314.22 77.86 314.54 77.79C314.41 77.74 314.34 77.71 314.32 77.7C313.7 77.44 312.53 77.17 311.57 77.07C311 77.01 309.81 77 309.24 77.05C308.83 77.08 307.7 77.26 307.56 77.31Z" id="a1te2Tr7EP">
</path>
<path d="M300.22 77.67C299.72 77.79 299.74 77.87 300.28 77.87C300.74 77.88 301.26 78.19 301.75 78.73C301.97 78.99 302.18 79.19 302.2 79.19C302.22 79.19 302.44 78.95 302.67 78.65C303.16 78.05 303.42 77.85 304.16 77.5C304.2 77.49 304.37 77.41 304.67 77.26C304.07 77.26 303.74 77.27 303.67 77.27C303.12 77.27 302.46 77.29 302.21 77.32C301.66 77.39 300.86 77.53 300.22 77.67Z" id="b26xt5fndm">
</path>
<path d="M303.72 78.44C303.41 78.66 302.58 79.68 302.58 79.83C302.58 79.99 302.65 79.97 302.93 79.74C303.52 79.24 304.36 78.79 305.39 78.42C305.84 78.25 305.86 78.25 305.94 78.36C305.99 78.42 306.01 78.51 306.01 78.56C305.99 78.61 305.62 78.81 305.17 79C303.72 79.63 303.35 79.88 302.72 80.68C302.48 80.99 302.24 81.59 301.98 82.57C301.95 82.68 302.29 82.94 302.44 82.94C302.48 82.94 302.86 82.71 303.27 82.44C303.33 82.4 303.58 82.23 304.03 81.93C304.13 82.03 304.18 82.08 304.19 82.09C304.32 82.22 304.35 82.28 304.29 82.37C304.17 82.56 303.41 83.09 302.71 83.47C302.32 83.68 301.94 83.9 301.87 83.95C301.79 84.02 301.44 84.47 301.11 84.95C300.62 85.67 300.31 86.03 299.59 86.73C298.7 87.62 298.7 87.62 298.5 88.17C298.49 88.21 298.42 88.39 298.3 88.72C298.3 90.26 298.31 91.11 298.31 91.28C298.31 92.69 298.34 94.04 298.36 94.28C298.39 94.58 298.38 94.93 298.31 95.4C298.25 95.76 298.21 96.31 298.21 96.6C298.21 97.14 298.25 97.31 298.68 98.31C298.84 98.71 298.84 98.73 298.77 99.19C298.73 99.45 298.62 100.01 298.53 100.44C298.37 101.15 298.34 101.22 298.21 101.24C298.13 101.25 298 101.25 297.92 101.23C297.75 101.18 297.74 101.25 298.03 99.93C298.13 99.46 298.21 99 298.21 98.91C298.21 98.82 298.09 98.47 297.95 98.14C297.61 97.34 297.54 96.87 297.64 95.98C297.69 95.6 297.73 95.01 297.75 94.68C297.78 94.13 297.77 94.07 297.63 93.78C297.54 93.61 297.34 93.33 297.18 93.15C296.8 92.72 295.85 92.01 295.18 91.65C294.48 91.28 293.96 91.18 292.68 91.18C291.55 91.17 291.01 91.28 290.31 91.64C289.68 91.97 288.94 92.76 288.4 93.69C288.15 94.12 287.79 94.74 287.6 95.06C286.58 96.81 285.95 97.33 284.47 97.63C283.35 97.85 280.54 97.86 280.32 97.63C280.28 97.6 280.27 97.48 280.3 97.36C280.3 97.35 280.31 97.28 280.33 97.16C281.39 97.16 281.98 97.16 282.1 97.16C284.11 97.15 284.56 97.09 285.31 96.72C285.9 96.43 286.2 96.1 286.46 95.43C286.71 94.77 286.76 94.2 286.62 93.55C286.46 92.83 286.2 92.47 285.15 91.44C284.12 90.43 283.81 90 283.57 89.27C283.37 88.68 283.24 87.95 283.32 87.87C283.35 87.83 283.48 87.8 283.6 87.77C283.86 87.73 283.83 87.67 283.99 88.53C284.05 88.83 284.19 89.25 284.34 89.55C284.57 90.01 284.67 90.13 285.43 90.86C286.72 92.08 287.06 92.6 287.26 93.7C287.27 93.74 287.3 93.93 287.37 94.28C287.51 94.02 287.59 93.88 287.61 93.85C288.31 92.58 288.99 91.76 289.73 91.28C290.11 91.05 290.99 90.69 291.21 90.69C291.41 90.69 291.42 90.54 291.25 90.2C291.09 89.9 291.08 89.83 291.08 88.93C291.08 88.4 291.11 87.53 291.16 86.98C291.16 86.92 291.19 86.59 291.23 86L291.45 86L291.66 86C291.64 86.42 291.62 86.66 291.62 86.7C291.6 87.09 291.56 87.93 291.55 88.57C291.54 88.64 291.53 89.03 291.51 89.72L291.73 90.13L291.95 90.53C292.29 90.54 292.48 90.54 292.52 90.54C293.8 90.56 294.71 90.72 295.31 91.03C295.81 91.27 296.7 91.9 297.18 92.32C297.2 92.35 297.35 92.48 297.61 92.72L297.65 90.75L297.68 88.78C297.82 88.36 297.9 88.13 297.92 88.08C298.05 87.68 298.14 87.36 298.13 87.35C297.85 87.15 297.52 86.96 296.51 86.43C295.13 85.71 294.65 85.42 293.33 84.43C292.6 83.89 292.4 83.71 292.41 83.61C292.42 83.54 292.47 83.45 292.53 83.42C292.61 83.37 292.78 83.47 293.39 83.92C294.71 84.89 295.34 85.3 296.11 85.7C296.53 85.91 297.22 86.28 297.66 86.52C297.72 86.55 297.98 86.69 298.46 86.95C298.58 86.86 298.66 86.8 298.67 86.79C299.24 86.36 299.97 85.54 300.63 84.58C301.02 84.03 301.42 83.51 301.52 83.44C301.62 83.37 301.71 83.28 301.71 83.25C301.71 83.15 300.3 82.5 299.86 82.4C299.52 82.33 298.68 82.3 295.89 82.25C293.95 82.22 292.2 82.17 291.99 82.13C290.86 81.94 289.63 82.19 288.3 82.86C287.83 83.1 287.63 83.25 287.1 83.79C286.75 84.14 286.42 84.5 286.36 84.6C286.23 84.79 286.25 84.81 286.76 85C287.08 85.12 287.1 85.12 287.31 85.03C287.44 84.97 287.57 84.83 287.63 84.71C287.71 84.53 287.76 84.5 287.94 84.5C288.11 84.5 288.15 84.53 288.15 84.63C288.15 85.05 287.55 85.57 287.08 85.57C286.97 85.57 286.58 85.43 286.21 85.27C286.17 85.25 285.95 85.15 285.55 84.97C284.99 84.97 284.68 84.97 284.62 84.97C283.68 84.97 283.67 84.97 283.25 85.18C282.41 85.6 281.28 86.56 280.27 87.73C279.56 88.55 279.21 89.08 278.65 90.18C278.08 91.31 277.83 91.98 277.55 93.03C277.31 93.96 277.02 94.65 276.73 95C276.72 95.01 276.66 95.08 276.55 95.2L276.4 95.07L276.24 94.95C276.33 94.8 276.38 94.72 276.39 94.71C276.7 94.17 276.91 93.67 277.08 92.97C277.19 92.57 277.27 92.18 277.27 92.12C277.27 91.98 277.26 91.98 275.79 92.23C274.75 92.4 274.17 92.58 273.78 92.85C273.02 93.36 271.51 95.63 271.18 96.78C270.95 97.55 271.14 98.49 271.65 99.13C272.02 99.59 273.34 100.5 273.65 100.5C273.75 100.5 274.3 99.96 274.49 99.69C274.61 99.5 274.61 99.23 274.5 98.63C274.45 98.37 274.42 98.14 274.45 98.11C274.47 98.1 274.59 98.06 274.72 98.03C274.73 98.03 274.81 98.02 274.95 97.99C275.03 98.36 275.07 98.57 275.08 98.61C275.15 98.95 275.23 99.28 275.24 99.35C275.26 99.42 275.2 99.63 275.11 99.8C274.95 100.11 274.64 100.47 273.64 101.43C272.87 102.17 272.71 102.57 272.71 103.8C272.72 105.01 272.92 105.75 273.53 106.64C274.25 107.71 275.28 108.75 275.92 109.06C276.27 109.23 277.67 109.56 277.74 109.49C277.75 109.48 277.68 109.3 277.58 109.09C277.33 108.59 277.25 108.12 277.33 107.69C277.37 107.5 277.56 106.88 277.76 106.31C277.78 106.24 277.9 105.9 278.12 105.28C278.12 104.68 278.12 104.35 278.12 104.28C278.12 103 277.95 102.25 277.38 100.98C277.25 100.68 277.15 100.39 277.16 100.33C277.17 100.28 277.27 100.19 277.38 100.15C277.58 100.06 277.59 100.07 277.71 100.26C278.05 100.82 278.52 102.26 278.68 103.22C278.87 104.41 278.77 105.23 278.27 106.63C277.75 108.07 277.8 108.59 278.56 109.43C279.11 110.04 279.68 110.34 281.53 110.99C283.17 111.58 284.32 111.86 284.55 111.74C284.62 111.7 285.06 111.38 285.52 111.03C286.42 110.36 287.73 109.42 288.55 108.88C288.83 108.69 289.13 108.48 289.23 108.4C289.24 108.39 289.3 108.34 289.4 108.26C289.04 108.09 288.84 107.99 288.8 107.98C287.92 107.56 286.61 106.46 285.75 105.41C284.96 104.47 284.43 104.02 282.99 103.13C281.52 102.21 280.97 101.82 280.44 101.31C279.93 100.8 279.9 100.72 280.19 100.53C280.34 100.43 280.35 100.43 280.82 100.89C281.4 101.44 281.82 101.75 283.05 102.5C283.57 102.81 284.22 103.23 284.48 103.43C285.06 103.84 285.92 104.68 286.36 105.26C286.53 105.48 287.04 105.98 287.5 106.38C288.35 107.11 288.9 107.45 289.69 107.73C289.71 107.74 289.84 107.78 290.07 107.86C290.55 107.57 290.82 107.4 290.87 107.37C291.94 106.7 292.54 106.42 293.36 106.19C293.74 106.08 294.08 105.98 294.13 105.97C294.18 105.95 294.16 105.86 294.08 105.64C293.88 105.12 293.72 104.4 293.46 102.9C293.18 101.31 293.11 100.71 293.02 99.16C292.88 96.95 292.8 96.59 291.98 94.85C291.7 94.24 291.46 93.67 291.46 93.6C291.46 93.49 291.51 93.43 291.66 93.38C291.9 93.3 291.83 93.21 292.45 94.5C293.39 96.5 293.41 96.6 293.65 100.03C293.74 101.35 294.14 103.78 294.47 105.03C294.58 105.43 294.59 105.56 294.53 105.71C294.53 105.72 294.5 105.78 294.46 105.9C294.66 105.87 294.77 105.85 294.79 105.85C296.33 105.66 297 105.66 298.33 105.9C299.66 106.13 301.81 106.03 302.79 105.7C303.29 105.52 303.47 105.41 303.97 104.98C304.22 104.76 304.54 104.51 304.68 104.42C304.9 104.28 304.94 104.22 304.97 103.99C304.99 103.84 305.07 103.51 305.14 103.26C305.31 102.64 305.31 102.11 305.14 101.78C304.96 101.46 304.58 101.01 303.72 100.11C303.34 99.71 303.02 99.36 303.02 99.33C303.02 99.3 303.07 99.22 303.14 99.16C303.27 99.05 303.28 99.05 303.64 99.41C303.85 99.61 304.03 99.76 304.06 99.74C304.07 99.71 303.96 99.4 303.81 99.03C303.65 98.66 303.52 98.32 303.52 98.28C303.52 98.23 303.57 98.19 303.65 98.19C303.75 98.19 303.83 98.3 304.02 98.7C304.15 98.99 304.34 99.46 304.43 99.76C304.57 100.21 304.68 100.4 305 100.8C305.22 101.06 305.47 101.44 305.56 101.63C305.71 101.93 305.74 102.04 305.72 102.47C305.72 102.78 305.66 103.18 305.56 103.53C305.55 103.56 305.49 103.75 305.4 104.08C305.61 104.05 305.73 104.03 305.76 104.03C305.95 104 306.72 103.97 307.46 103.97C307.54 103.97 307.99 103.97 308.8 103.97C309.09 103.83 309.25 103.75 309.28 103.74C310.63 103.1 311.84 102.02 312.32 101.04C312.54 100.59 312.68 100.01 312.74 99.25C312.77 98.86 312.83 98.61 312.95 98.33C313.05 98.11 313.15 97.94 313.17 97.94C313.19 97.94 313.3 97.99 313.42 98.05C313.58 98.12 313.64 98.18 313.61 98.25C313.44 98.69 313.32 99.19 313.28 99.72C313.15 101.06 312.58 102.08 311.42 103.05C311.17 103.25 310.87 103.5 310.73 103.61C310.71 103.63 310.63 103.7 310.49 103.82C310.62 103.8 310.69 103.79 310.7 103.78C310.82 103.76 311.36 103.65 311.89 103.53C314.12 103.03 314.64 102.94 315.64 102.9C316.74 102.86 317.63 102.96 318.55 103.22C318.84 103.31 319.13 103.38 319.18 103.38C319.34 103.38 320.4 102.5 321.32 101.6C322.22 100.73 322.91 99.95 323.77 98.85C324.31 98.14 325.47 96.93 325.79 96.72C325.97 96.6 325.97 96.6 326.08 96.76C326.09 96.77 326.13 96.82 326.2 96.91C325.79 97.31 325.57 97.53 325.52 97.57C325.15 97.93 324.46 98.71 323.98 99.31C322.57 101.08 321.49 102.2 320.16 103.28C319.91 103.48 319.7 103.66 319.7 103.68C319.7 103.72 320.6 104.28 321.52 104.8C321.77 104.95 322.05 105.06 322.12 105.06C322.22 105.06 322.35 104.95 322.59 104.63C322.77 104.38 322.97 104.19 323.02 104.19C323.08 104.19 323.19 104.25 323.27 104.31C323.28 104.32 323.33 104.36 323.42 104.43C323.35 104.57 323.31 104.65 323.3 104.66C323.12 105.01 322.45 105.68 322.24 105.73C322.02 105.78 321.83 105.69 320.21 104.73C318.85 103.93 318.46 103.77 317.45 103.6C316.7 103.46 315.37 103.46 314.55 103.6C314.2 103.65 313.3 103.83 312.55 104C310.52 104.45 309.46 104.63 308.77 104.63C308.42 104.63 307.14 104.96 306.56 105.2C305.67 105.56 304.79 106.18 303.79 107.14C303.76 107.17 303.59 107.34 303.28 107.63C303.39 107.9 303.46 108.05 303.47 108.08C303.75 108.74 303.77 109.37 303.53 110.28C303.36 110.96 303.36 110.97 303.16 110.99C302.97 111.01 302.96 110.99 302.96 110.84C302.96 110.75 303.02 110.45 303.09 110.17C303.26 109.54 303.27 108.89 303.12 108.47C303.06 108.29 302.89 107.93 302.74 107.66C302.58 107.39 302.46 107.13 302.46 107.09C302.46 107.04 302.51 106.98 302.59 106.93C302.7 106.88 302.74 106.89 302.89 107.02C302.9 107.03 302.95 107.08 303.05 107.18C303.42 106.84 303.63 106.66 303.67 106.62C304.6 105.78 305.22 105.33 306.01 104.95C306.39 104.77 306.71 104.6 306.71 104.58C306.71 104.52 305.86 104.61 305.5 104.72C305.15 104.82 304.83 105.03 304.05 105.69C303.33 106.29 302.31 106.55 300.36 106.61C299.32 106.64 299.08 106.63 298.36 106.5C296.77 106.23 295.46 106.28 293.9 106.66C292.78 106.93 292.32 107.16 290.45 108.35C288.1 109.84 285.56 111.67 284.7 112.49C284.2 112.96 284.17 113.09 283.86 115.36C283.77 116.01 283.68 116.64 283.67 116.77C283.62 117.13 283.89 117.62 284.47 118.22C284.5 118.26 284.67 118.43 284.96 118.74C285.01 119.07 285.04 119.25 285.05 119.29C285.09 119.59 285.17 119.94 285.23 120.07C285.3 120.24 285.31 120.43 285.29 120.81C285.26 121.19 285.28 121.37 285.36 121.59C285.57 122.15 286.25 122.87 287.08 123.43C287.78 123.9 288.64 124.37 288.78 124.36C288.86 124.36 289.24 124.5 289.61 124.67C290 124.85 290.48 125.06 290.68 125.12C291.21 125.31 292.03 125.39 292.62 125.31C293.28 125.23 293.83 125.12 293.83 125.07C293.83 125.05 293.67 124.93 293.48 124.81C293.03 124.55 292.46 124.01 292.21 123.62C291.87 123.1 291.77 122.69 291.77 121.84C291.77 120.86 291.91 120.27 292.51 118.85C292.76 118.27 292.95 117.78 292.94 117.77C292.93 117.76 292.78 117.84 292.61 117.95C292.19 118.23 291.87 118.69 291.26 119.94C290.6 121.26 290.43 121.51 290.03 121.71C290.01 121.72 289.9 121.77 289.72 121.87C289.67 121.76 289.64 121.69 289.64 121.68C289.58 121.52 289.58 121.48 289.65 121.43C289.7 121.4 289.83 121.32 289.94 121.24C290.1 121.14 290.28 120.84 290.83 119.76C291.73 117.98 292.1 117.56 293.1 117.18C293.13 117.17 293.25 117.13 293.46 117.04C293.14 116.88 292.97 116.79 292.93 116.77C292.64 116.61 292.28 116.38 292.12 116.24C291.97 116.11 291.58 115.86 291.26 115.69C290.94 115.53 290.11 115.08 289.43 114.7C288.31 114.09 288.18 113.99 288.2 113.87C288.2 113.79 288.24 113.69 288.27 113.66C288.3 113.63 288.86 113.89 289.61 114.28C290.33 114.64 290.91 114.94 290.93 114.93C290.94 114.91 290.85 114.69 290.73 114.44C290.51 113.97 290.33 113.53 290.33 113.44C290.33 113.41 290.42 113.36 290.52 113.32C290.68 113.26 290.72 113.27 290.75 113.36C290.88 113.71 291.35 114.66 291.53 114.92C292.38 116.17 293.53 116.76 295.3 116.85C296.05 116.89 296.15 116.88 298.11 116.37C299.31 116.06 299.45 115.99 299.74 115.61C299.99 115.29 300.28 115.06 300.46 115.06C300.73 115.06 300.71 114.97 300.23 113.93C299.97 113.37 299.72 112.8 299.67 112.68C299.59 112.46 299.59 112.43 299.71 112.37C299.78 112.34 299.88 112.31 299.93 112.33C299.98 112.34 300.2 112.73 300.42 113.22C301.25 115.08 301.21 115.03 302.34 115.19C304.01 115.43 304.99 115.51 305.36 115.47C305.89 115.41 306.47 115.17 308.21 114.26C308.31 114.21 308.82 113.95 309.74 113.47C309.76 113.24 309.77 113.12 309.77 113.09C309.83 112.51 310.39 111.43 311.37 110.06C311.67 109.63 312.15 108.93 312.43 108.5C313.15 107.42 313.17 107.39 313.31 107.48C313.58 107.64 313.47 107.86 312.07 109.84C311.64 110.46 311.16 111.16 311.02 111.41C310.64 112.03 310.2 112.93 310.2 113.11C310.2 113.24 310.22 113.26 310.38 113.23C310.9 113.11 311.25 113.12 311.89 113.28C312.75 113.5 313.73 113.54 315.8 113.44C317.54 113.36 317.65 113.34 318.45 112.95C319.07 112.66 319.59 112.13 319.92 111.5C320.21 110.93 320.17 110.98 320.36 111.03C320.57 111.08 320.56 111.23 320.29 111.76C320.05 112.23 319.56 112.81 319.13 113.09C319 113.19 318.89 113.29 318.89 113.31C318.89 113.33 319.04 113.4 319.22 113.46C319.4 113.53 319.88 113.77 320.3 114.01C321.51 114.69 321.58 114.72 323.02 114.72C324.08 114.72 324.27 114.71 324.47 114.6C324.6 114.54 324.99 114.18 325.35 113.79C326.75 112.25 327.02 112.02 328.14 111.38C330.32 110.14 331.7 109.09 332.86 107.76C333.55 106.98 333.73 106.66 334.23 105.41C334.78 104.05 334.97 103.66 335.76 102.34C336.56 101.02 336.73 100.6 336.69 100.02C336.67 99.6 336.66 99.58 335.78 98.1C334.84 96.53 334.34 95.6 334.4 95.54C334.41 95.52 334.53 95.46 334.65 95.41C334.67 95.41 334.74 95.37 334.88 95.31C335.18 95.85 335.34 96.15 335.38 96.21C335.65 96.7 336.17 97.6 336.54 98.21C336.9 98.83 337.23 99.44 337.26 99.56C337.48 100.32 337.19 101.16 336.19 102.8C335.84 103.35 335.76 103.54 335.81 103.62C335.88 103.73 336.49 104.11 337.44 104.62C337.96 104.89 338.74 105.47 339.19 105.91C339.31 106.02 339.23 106.31 339.09 106.31C339.03 106.31 338.73 106.1 338.42 105.85C338.11 105.59 337.64 105.26 337.37 105.11C337.1 104.96 336.57 104.67 336.19 104.45C335.79 104.24 335.46 104.09 335.43 104.12C335.41 104.15 335.14 104.76 334.85 105.48C334.56 106.19 334.25 106.9 334.16 107.05C333.91 107.48 333.16 108.34 332.29 109.19C331.64 109.83 331.28 110.12 330.43 110.68C329.85 111.07 329.03 111.58 328.59 111.83C327.66 112.34 327.51 112.44 327.15 112.78C326.61 113.25 325.33 114.7 325.37 114.78C325.4 114.81 325.6 115.13 325.83 115.49C326.24 116.11 326.45 116.65 326.34 116.76C326.31 116.79 326.19 116.83 326.07 116.85C325.86 116.89 325.85 116.88 325.77 116.61C325.72 116.47 325.51 116.09 325.31 115.79C325.28 115.75 325.16 115.57 324.95 115.23C324.66 115.26 324.5 115.27 324.47 115.28C322.66 115.42 321.86 115.38 321.12 115.1C320.91 115.02 320.41 114.76 320.02 114.54C319.23 114.09 318.83 113.94 318.4 113.94C318.38 113.94 318.29 113.94 318.12 113.94C318.15 114.13 318.16 114.23 318.16 114.25C318.21 114.66 318.57 115.42 318.85 115.68C319.09 115.91 319.13 116.06 318.98 116.19C318.67 116.45 317.98 115.49 317.72 114.44C317.72 114.41 317.68 114.26 317.62 113.99C316.71 114.02 316.21 114.03 316.11 114.04C315.29 114.07 314.15 114.09 313.58 114.08C312.68 114.07 312.45 114.04 311.81 113.89C310.74 113.63 310.76 113.62 308.05 115.01C306.04 116.03 305.84 116.09 304.68 116.04C304.19 116.03 303.29 115.94 302.67 115.85C302.06 115.76 301.33 115.68 301.06 115.65C301.03 115.65 300.87 115.63 300.58 115.61C300.26 115.94 300.09 116.13 300.05 116.16C299.76 116.47 299.5 116.78 299.48 116.86C299.44 117.03 299.68 117.58 300.22 118.5C300.24 118.54 300.37 118.76 300.61 119.16L300.63 119.83L300.66 120.51C300.78 120.56 300.85 120.59 300.86 120.6C300.97 120.64 301.31 120.74 301.6 120.82C302.11 120.96 302.14 120.97 302.14 121.14C302.14 121.54 302.06 121.57 301.33 121.37C300.68 121.2 300.17 120.95 300.09 120.77C300.05 120.69 300.02 120.33 300.02 119.98C300.02 119.94 300.02 119.73 300.02 119.35C299.76 118.88 299.61 118.63 299.58 118.57C299.09 117.73 298.93 117.36 298.86 116.95C298.84 116.81 298.81 116.69 298.8 116.69C298.79 116.69 298.21 116.83 297.51 117C296.25 117.32 296.23 117.32 295.3 117.31C294.34 117.3 293.79 117.39 293.61 117.58C293.51 117.68 292.93 119.02 292.63 119.82C292.3 120.71 292.19 121.27 292.22 122.02C292.24 122.58 292.26 122.71 292.45 123.09C292.9 124.04 293.71 124.57 295.77 125.26C296.98 125.65 297.26 125.78 297.84 126.22C298.19 126.49 298.58 126.9 298.58 126.99C298.58 127.02 298.53 127.09 298.46 127.16C298.33 127.27 298.33 127.27 298.09 127.05C297.73 126.71 297.21 126.32 296.9 126.16C296.74 126.08 296.15 125.87 295.59 125.69C295.52 125.66 295.18 125.56 294.56 125.36C294.3 125.44 294.15 125.48 294.12 125.49C292.8 125.87 291.61 125.91 290.58 125.57C290.26 125.47 289.98 125.39 289.97 125.41C289.94 125.44 290.68 125.91 291.4 126.31C292.96 127.2 294.95 127.85 296.74 128.06C297.05 128.09 298.34 128.12 299.61 128.13C301.81 128.14 301.97 128.13 302.99 127.97C304.69 127.71 305.94 127.46 306.64 127.22C308.17 126.7 309.42 126.58 312.08 126.69C313.35 126.74 314.4 126.75 315.49 126.71C316.35 126.68 317.81 126.66 318.73 126.66C320.59 126.67 320.43 126.64 323.05 127.23C323.12 127.25 323.47 127.33 324.11 127.47C325.35 127.46 326.03 127.45 326.17 127.45C327.93 127.44 328.36 127.46 329.14 127.56C330.41 127.73 331.63 127.86 332.83 127.94C333.99 128.01 334.61 128.08 335.61 128.23C336.34 128.34 337.83 128.37 338.54 128.29C339.35 128.19 339.53 127.76 339.11 126.91C338.88 126.42 338.77 126.31 337.79 125.54C337.01 124.94 336.39 124.31 335.56 123.27C335.25 122.88 334.99 122.56 334.98 122.56C334.97 122.56 334.65 122.66 334.25 122.79C333.15 123.13 332.28 123.26 331.06 123.26C330.99 123.26 330.64 123.26 330.01 123.26C330.16 123.43 330.25 123.52 330.26 123.54C330.4 123.7 330.58 123.97 330.67 124.14C330.81 124.44 330.83 124.52 330.83 125.29C330.83 125.35 330.83 125.63 330.83 126.12L330.61 126.12L330.39 126.12C330.39 125.68 330.39 125.44 330.39 125.39C330.39 124.75 330.37 124.62 330.24 124.34C330.05 123.92 329.52 123.42 329.04 123.18C328.59 122.96 328.3 122.91 325.59 122.6C321.05 122.07 320.86 122.07 318.9 122.22C318.13 122.29 317.29 122.31 316.64 122.29C315.53 122.26 315.39 122.23 314.49 121.81C314.25 121.69 313.98 121.61 313.89 121.61C313.67 121.61 313.21 121.84 312.2 122.47C311.3 123.04 310.69 123.33 310.17 123.44C309.93 123.5 309.36 123.52 308.55 123.52C307.21 123.52 306.92 123.49 305.44 123.12C305.04 123.02 304.64 122.94 304.56 122.94C304.29 122.94 303.83 123.15 303.22 123.54C302.91 123.76 302.46 123.99 302.22 124.07C301.84 124.21 301.7 124.22 300.77 124.21C300.2 124.21 299.63 124.18 299.49 124.15C299.26 124.09 299.24 124.07 299.24 123.89C299.24 123.77 299.25 123.68 299.27 123.67C299.29 123.67 299.68 123.7 300.15 123.75C301.52 123.88 302.21 123.72 303.17 123.03C303.99 122.45 304.39 122.39 305.64 122.69C307.04 123.01 307.54 123.08 308.61 123.08C309.16 123.08 309.78 123.05 309.99 123.01C310.44 122.92 311.24 122.53 312.2 121.93C313.09 121.37 313.61 121.12 313.88 121.12C313.99 121.12 314.4 121.26 314.79 121.43C315.18 121.61 315.66 121.77 315.89 121.81C316.4 121.89 317.27 121.89 318.2 121.81C319.99 121.66 320.68 121.64 321.42 121.69C322.83 121.81 327.87 122.38 328.5 122.5C328.67 122.53 328.96 122.62 329.15 122.71C329.43 122.83 329.5 122.84 329.55 122.77C329.6 122.7 329.7 122.7 330.17 122.76C330.86 122.84 332.18 122.79 332.88 122.66C334.73 122.29 336.64 121.41 338.92 119.87C338.96 119.85 339.14 119.72 339.48 119.5C339.55 119.58 339.59 119.62 339.59 119.63C339.66 119.71 339.69 119.8 339.68 119.84C339.62 120.04 337.48 121.38 336.31 121.96C335.88 122.17 335.52 122.37 335.51 122.41C335.51 122.52 336.31 123.49 336.95 124.15C337.28 124.49 337.91 125.06 338.36 125.41C338.97 125.89 339.22 126.13 339.37 126.38C339.83 127.16 339.9 127.74 339.58 128.26C339.57 128.28 339.5 128.39 339.38 128.58C340.11 128.56 340.51 128.55 340.59 128.54C341.89 128.51 342.49 128.41 343.45 128.09C343.91 127.92 343.98 127.88 344 127.75C344.01 127.66 344.09 127.29 344.17 126.91C344.32 126.27 344.33 126.17 344.29 125.16C344.26 124.44 344.27 124.01 344.32 123.84C344.36 123.71 344.61 123.29 344.89 122.91C345.55 122.01 345.61 121.82 345.6 120.53C345.6 119.67 345.57 119.42 345.42 118.79C345.23 117.96 344.92 117 344.62 116.33C344.61 116.29 344.54 116.14 344.42 115.86C344.51 115.79 344.56 115.75 344.57 115.74C344.71 115.63 344.71 115.63 343.69 115.63C343.12 115.63 342.48 115.61 342.26 115.58C342.24 115.58 342.11 115.57 341.88 115.54C341.9 115.78 341.92 115.92 341.92 115.94C342 116.62 341.96 118.22 341.83 119.44C341.76 120.07 341.69 120.87 341.67 121.22C341.65 121.56 341.62 121.96 341.6 122.11C341.57 122.37 341.56 122.38 341.37 122.36C341.36 122.36 341.29 122.35 341.17 122.34C341.18 122.01 341.19 121.82 341.19 121.78C341.19 121.47 341.28 120.47 341.36 119.56C341.55 117.69 341.54 116.23 341.36 115.38C341.08 114.1 340.49 112.78 339.73 111.72C339.51 111.41 339.34 111.12 339.36 111.07C339.41 110.95 339.29 111.01 338.68 111.4C337.86 111.94 337.54 112.33 336.64 113.88C335.99 114.99 335.67 115.44 334.99 116.22C334.16 117.2 333.25 118.04 332.47 118.56C332.1 118.81 331.55 119.26 331.26 119.54C330.77 120.02 330.7 120.07 330.58 120.01C330.51 119.96 330.45 119.89 330.45 119.84C330.45 119.72 331.15 118.94 331.46 118.71C331.61 118.59 331.94 118.37 332.19 118.2C333.67 117.21 335.03 115.66 336.28 113.59C337.28 111.91 337.5 111.64 338.53 110.96C340.85 109.42 341.94 108.17 342.23 106.74C342.39 105.91 342.36 105.65 341.98 104.54C341.61 103.47 341.46 102.86 341.29 101.78C341.03 99.95 340.58 98.01 340.17 96.81C339.18 93.97 337.68 92.55 335.06 91.97C334.23 91.78 332.41 91.88 332.11 92.13C332.07 92.16 331.93 92.39 331.79 92.63C331.5 93.17 330.74 94.02 330.6 93.96C330.55 93.94 330.48 93.87 330.45 93.8C330.39 93.7 330.43 93.63 330.71 93.33C331.13 92.86 331.41 92.44 331.61 91.94C331.85 91.38 331.85 90.99 331.61 90.6C331.23 89.95 329.81 88.67 327.11 86.53C326.47 86.02 325.93 85.57 325.91 85.52C325.89 85.47 325.93 85.38 325.98 85.32C326.12 85.16 326.09 85.14 327.3 86.08C329.91 88.13 331.39 89.47 331.93 90.25C332.19 90.64 332.22 90.72 332.25 91.13C332.28 91.47 332.3 91.57 332.36 91.54C332.61 91.45 333.63 91.37 334.2 91.4C335.66 91.48 337.07 92 338.14 92.87C339.15 93.67 339.79 94.61 340.43 96.18C340.99 97.56 341.08 97.7 344.89 102.5C345.34 103.07 345.94 103.87 346.21 104.28C346.59 104.83 346.77 105.05 346.94 105.14C347.06 105.2 347.42 105.5 347.74 105.8C348.27 106.31 348.32 106.38 348.44 106.77C348.51 107.01 348.61 107.46 348.64 107.77C348.73 108.46 348.68 110.07 348.54 110.99C348.54 111.04 348.51 111.25 348.45 111.64C348.71 112.23 348.86 112.55 348.89 112.62C349.13 113.16 349.38 113.66 349.45 113.75C349.46 113.76 349.5 113.81 349.57 113.91C349.57 113.74 349.57 113.64 349.57 113.63C349.57 112.69 349.36 110.22 349.16 109.06C348.8 106.89 348.13 105.08 347.33 104.13C347.03 103.78 346.95 103.61 346.86 103.28C346.71 102.7 346.31 101.7 345.94 101C345.26 99.73 344.55 98.89 343.81 98.48C343.57 98.35 343.34 98.18 343.29 98.1C343.24 98.03 343.18 97.65 343.14 97.26C343.03 96.04 342.83 95.33 342.34 94.35C341.56 92.76 339.94 91.1 338.15 90.07C337.84 89.89 337.57 89.7 337.55 89.63C337.54 89.58 337.5 89.43 337.48 89.32C337.38 88.82 336.91 88.11 336.06 87.2C335.78 86.9 335.33 86.36 335.08 86C333.16 83.37 329.66 81.35 325.03 80.22C324.28 80.04 323.57 79.81 323.03 79.59C322.03 79.18 320.97 78.87 319.83 78.65C319.11 78.52 318.72 78.49 317.14 78.44C316.13 78.41 315.1 78.37 314.86 78.35C314.37 78.3 313.91 78.37 313.37 78.57C313.07 78.68 312.86 78.84 312.29 79.37C311.9 79.74 311.4 80.15 311.17 80.29C310.95 80.42 310.75 80.55 310.73 80.57C310.67 80.67 311.25 81.74 311.45 81.9C311.56 81.99 311.67 82.07 311.7 82.07C311.72 82.07 311.8 81.98 311.89 81.87C312.45 81.1 313.38 80.36 314.06 80.12C314.47 79.98 316.09 79.63 316.35 79.63C316.5 79.63 316.52 79.65 316.5 79.77C316.49 79.9 316.4 79.93 315.5 80.11C314.35 80.34 313.93 80.48 313.4 80.82C313.04 81.06 312.55 81.54 312.27 81.94C312.26 81.95 312.21 82.01 312.14 82.12C312.22 82.14 312.27 82.15 312.28 82.15C312.36 82.17 312.9 82.22 313.49 82.28C314.07 82.33 314.72 82.42 314.92 82.47C315.49 82.62 316.11 82.94 316.74 83.4C316.77 83.43 316.96 83.57 317.29 83.82C317.62 83.82 317.8 83.82 317.84 83.82C318.56 83.82 318.58 83.8 318.92 82.51C319.04 82.06 319.2 81.58 319.27 81.44C319.58 80.82 321.3 79.88 322.11 79.88C322.3 79.88 322.75 80.04 323.74 80.47C325.47 81.2 326.09 81.44 327.28 81.78C328.36 82.1 328.98 82.35 330.01 82.89C331.53 83.68 332.76 84.62 333.09 85.23C333.26 85.55 333.39 86.1 333.39 86.54C333.39 86.56 333.39 86.65 333.39 86.81C333.66 86.94 333.81 87.02 333.85 87.03C335.5 87.88 336.89 89.13 339.03 91.69C339.38 92.12 339.94 92.78 340.28 93.17C340.6 93.55 341.04 94.1 341.24 94.38C341.44 94.67 341.74 95.05 341.91 95.22C342.07 95.39 342.2 95.54 342.2 95.55C342.2 95.65 341.97 95.94 341.89 95.94C341.74 95.94 341.22 95.38 340.71 94.68C340.47 94.35 340.01 93.77 339.69 93.4C339.37 93.03 338.79 92.35 338.4 91.88C337.48 90.78 336.43 89.67 335.76 89.08C335.17 88.56 333.95 87.72 333.51 87.54C333.36 87.47 333 87.32 332.7 87.18C332.03 86.88 331.66 86.78 330.76 86.63C329.67 86.44 329.5 86.37 327.86 85.39C326.63 84.66 326.09 84.41 325.35 84.22C323.7 83.8 321.63 83.91 318.87 84.57C318.43 84.67 318 84.75 317.9 84.75C317.76 84.75 317.7 84.82 317.46 85.24C316.6 86.74 315.3 88.53 314.46 89.35C314.43 89.38 314.28 89.53 314 89.8C314.14 90.14 314.21 90.33 314.23 90.37C314.57 91.21 314.58 91.48 314.3 92.57C314.18 93.08 314.05 93.77 314.02 94.16C313.96 94.84 313.97 94.85 314.14 95.25C314.31 95.62 314.32 95.66 314.22 95.73C314.17 95.78 314.08 95.81 314.04 95.81C313.93 95.81 313.67 95.41 313.58 95.09C313.47 94.73 313.59 93.47 313.8 92.71C314.13 91.46 314.12 91.2 313.68 90.25C313.66 90.21 313.59 90.05 313.46 89.77C313.09 89.57 312.89 89.46 312.85 89.44C311.96 88.96 310.96 88.38 310.92 88.31C310.85 88.2 310.95 87.94 311.05 87.94C311.1 87.94 311.49 88.14 311.9 88.38C312.82 88.92 313.6 89.32 313.73 89.32C313.89 89.32 314.6 88.6 315.1 87.95C315.59 87.32 316.73 85.6 317.07 84.99C317.19 84.79 317.25 84.6 317.23 84.56C317.14 84.41 315.84 83.49 315.47 83.31C315.25 83.21 314.93 83.09 314.75 83.05C314.73 83.05 314.61 83.03 314.41 82.99C314 83.2 313.77 83.32 313.73 83.35C313.35 83.55 312.47 84.04 311.77 84.44C311.06 84.84 310.2 85.32 309.85 85.49C309.27 85.79 309.16 85.88 308.35 86.71C307.39 87.68 307.17 88.02 306.78 89.14C306.45 90.07 306.37 90.63 306.41 91.85C306.46 93.02 306.55 93.58 306.93 94.86C307.16 95.62 307.17 95.65 307.05 95.73C306.85 95.88 306.67 95.83 306.47 95.58C306.37 95.45 306.26 95.28 306.21 95.2C306.17 95.11 305.91 94.75 305.64 94.38C305.17 93.75 304.71 92.85 304.71 92.56C304.71 92.45 304.87 92.32 305.01 92.32C305.03 92.32 305.14 92.5 305.23 92.73C305.45 93.27 305.79 93.88 305.94 94.02C306.06 94.13 306.06 94.12 306.01 93.8C305.98 93.62 305.91 93.1 305.86 92.66C305.77 91.97 305.74 91.82 305.62 91.69C305.54 91.6 305.41 91.42 305.34 91.27C305.19 90.97 305.14 90.94 304.51 90.72C303.96 90.52 303.65 90.35 303 89.89C302.5 89.53 302.42 89.38 302.66 89.23C302.74 89.18 302.87 89.24 303.31 89.55C303.61 89.75 304.01 90 304.17 90.08C304.52 90.25 305.2 90.47 305.25 90.42C305.31 90.36 304.73 89.5 304.12 88.72C303.79 88.31 303.45 87.87 303.35 87.73C303.18 87.5 303.18 87.48 303.3 87.4C303.37 87.35 303.46 87.32 303.52 87.33C303.65 87.35 304.68 88.64 305.3 89.56C305.33 89.61 305.51 89.87 305.82 90.33C305.86 90.17 305.88 90.08 305.89 90.06C306.04 89.42 306.37 88.5 306.62 87.95C306.88 87.41 306.97 87.3 307.99 86.24C309.12 85.07 309.45 84.65 309.58 84.21C309.71 83.78 309.65 83.69 308.84 83.07C308.42 82.76 307.86 82.3 307.57 82.06C307.24 81.78 306.84 81.52 306.47 81.34C306.16 81.18 305.88 81.03 305.86 81C305.84 80.97 305.87 80.85 305.94 80.73C306.06 80.46 306.06 80.46 306.84 80.85C307.16 81.01 307.62 81.32 307.94 81.59C308.24 81.84 308.8 82.29 309.17 82.58C310.06 83.27 310.14 83.37 310.23 83.78C310.23 83.8 310.26 83.92 310.3 84.13C310.57 83.79 310.72 83.6 310.75 83.57C311 83.26 311.25 82.92 311.32 82.82C311.42 82.64 311.42 82.62 311.32 82.56C310.95 82.35 310.79 82.12 310.26 81.03C309.95 80.4 309.58 79.72 309.43 79.52C308.95 78.86 308.04 78.22 307.21 77.94C306.68 77.77 305.59 77.72 305.05 77.84C304.59 77.95 304.07 78.18 303.72 78.44ZM322.55 88.27C321.99 88.87 321.7 89.34 321.7 89.64C321.7 89.73 321.75 90.07 321.8 90.38C321.95 91.28 321.8 92 321.17 93.37C321.02 93.7 320.89 93.97 320.89 93.98C320.89 94 321.24 93.68 321.67 93.27C322.94 92.05 323.4 91.87 325.39 91.86C326.37 91.85 326.68 91.87 326.95 91.96C328.07 92.3 329.3 93.53 330.02 95.05C330.5 96.05 330.76 96.97 331.06 98.7C331.06 98.72 331.08 98.82 331.11 99C331.41 98.77 331.57 98.65 331.61 98.62C332.2 98.17 332.58 97.98 333.13 97.87C333.46 97.8 333.53 97.8 333.58 97.88C333.74 98.13 333.64 98.21 332.91 98.41C332.62 98.49 332.38 98.63 331.82 99.05C331.08 99.62 330.96 99.78 331.16 100C331.27 100.11 331.56 100.21 332 100.28C332.31 100.33 332.35 100.38 332.3 100.67C332.29 100.69 332.28 100.76 332.26 100.9C332.01 100.87 331.88 100.86 331.85 100.86C331.38 100.82 330.83 100.58 330.64 100.31C330.54 100.18 330.51 100.04 330.51 99.68C330.51 99.43 330.47 98.93 330.42 98.58C330.1 96.3 329.31 94.53 328.11 93.4C327.22 92.54 326.81 92.41 325.17 92.46C323.48 92.5 323.25 92.6 322.03 93.76C321.13 94.63 320.75 94.92 320.22 95.18C319.81 95.39 318.16 95.9 318.08 95.85C318.02 95.81 317.87 95.38 317.9 95.35C317.92 95.33 318.29 95.21 318.74 95.08C319.19 94.94 319.62 94.8 319.7 94.76C320.01 94.59 320.9 93 321.22 92.03C321.37 91.55 321.4 90.94 321.3 89.9C321.25 89.34 321.25 89.31 321.42 88.96C321.55 88.72 321.8 88.4 322.22 87.98C322.82 87.37 322.83 87.36 322.95 87.47C323.02 87.53 323.08 87.61 323.08 87.64C323.08 87.68 322.84 87.96 322.55 88.27ZM303.21 112.88C303.11 113.06 302.92 113.14 302.78 113.07C302.67 113.01 302.29 112.58 302.18 112.39C302.12 112.29 302.36 112 302.49 112C302.53 112 302.72 112.17 302.92 112.38C303.21 112.7 303.26 112.78 303.21 112.88ZM311.55 116.12C311.49 117.03 311.57 117.31 312.1 118.03C312.33 118.33 312.5 118.61 312.48 118.66C312.43 118.79 312.21 118.84 312.1 118.74C311.9 118.57 311.44 117.92 311.28 117.58C311.12 117.25 311.11 117.16 311.11 116.44C311.11 115.62 311.19 115.33 311.37 115.4C311.42 115.42 311.49 115.44 311.53 115.44C311.57 115.44 311.58 115.66 311.55 116.12ZM291.9 124.31C291.9 124.34 291.86 124.39 291.81 124.43C291.74 124.49 291.56 124.38 290.95 123.92C290.52 123.61 289.83 123.11 289.41 122.82C288.7 122.34 288.58 122.21 288.69 122.11C288.78 122.01 288.91 122.09 289.84 122.72C290.87 123.44 291.9 124.23 291.9 124.31Z" id="a2JFQY7au1">
</path>
<path d="M297.21 78.25C295.42 78.11 293.76 78.24 292.08 78.65C289.82 79.22 287.56 80.4 285.93 81.89C285.61 82.17 285.48 82.25 285.32 82.25C285.08 82.25 284.48 82.48 283.73 82.85C282.47 83.47 281.68 84.1 279.87 85.92C279.78 86.01 279.37 86.42 278.62 87.18C278.32 87.27 278.15 87.32 278.12 87.33C277.84 87.42 277.46 87.53 277.27 87.59C276.97 87.68 276.82 87.78 276.02 88.53C275.52 89 274.87 89.56 274.57 89.77C273.92 90.21 273.17 90.98 272.69 91.72C272.27 92.33 271.61 93.68 271.34 94.48C271.22 94.8 271.01 95.28 270.85 95.55C270.17 96.74 269.88 97.46 269.77 98.25C269.69 98.82 269.77 99.36 269.97 99.77C269.98 99.79 270.02 99.87 270.09 100.01C270.32 99.77 270.45 99.64 270.48 99.61C270.69 99.38 270.91 99.19 270.96 99.18C271.03 99.15 271.02 99.08 270.87 98.75C270.72 98.41 270.69 98.24 270.66 97.71C270.65 97.35 270.67 96.93 270.71 96.73C270.86 95.98 271.87 94.25 272.76 93.19C273.25 92.6 273.63 92.32 274.17 92.13C274.7 91.95 275.84 91.71 276.57 91.62C276.98 91.57 277.27 91.51 277.33 91.45C277.4 91.39 277.6 91.01 277.79 90.6C278.2 89.68 278.69 88.8 279.07 88.25C280.08 86.83 281.92 85.14 283.02 84.62C283.41 84.43 283.47 84.42 284.53 84.37C285.14 84.35 285.69 84.3 285.76 84.26C285.82 84.23 286.14 83.91 286.46 83.57C287.11 82.85 287.35 82.68 288.13 82.29C288.84 81.94 289.41 81.74 290.18 81.57C290.7 81.45 290.91 81.44 291.46 81.47C291.51 81.48 291.73 81.49 292.13 81.51C292.15 81.2 292.17 81.03 292.17 80.99C292.23 80.26 292.49 79.74 292.74 79.84C292.91 79.9 292.92 80.07 292.78 80.35C292.68 80.56 292.65 80.75 292.65 81.09C292.65 81.12 292.65 81.27 292.65 81.55C292.82 81.57 292.91 81.59 292.93 81.59C293.1 81.61 294.16 81.63 295.29 81.63C297.78 81.64 299.54 81.71 300.11 81.84C300.34 81.9 300.74 82.04 301.01 82.16C301.26 82.29 301.5 82.36 301.52 82.34C301.55 82.3 301.67 81.96 301.79 81.57C301.92 81.17 302.09 80.74 302.17 80.62C302.36 80.35 302.36 80.35 301.94 79.72C301.57 79.17 300.92 78.52 300.65 78.44C300.53 78.39 300.18 78.34 299.86 78.32C299.34 78.29 299.3 78.27 299.28 78.14C299.26 77.96 299.1 77.97 298.58 78.17C298.18 78.32 298.18 78.32 297.21 78.25Z" id="b1aV9hrRHJ">
</path>
<path d="M319.71 81.59C319.64 81.7 319.48 82.17 319.37 82.62C319.24 83.07 319.1 83.53 319.05 83.66C318.94 83.93 318.91 83.93 319.84 83.73C321.1 83.46 321.61 83.41 323.08 83.41C324.6 83.41 324.97 83.45 325.9 83.76C326.58 83.98 327.07 84.23 328.35 84.99C329.6 85.74 329.86 85.84 331 86.07C331.51 86.17 332.13 86.32 332.38 86.4C332.64 86.49 332.86 86.57 332.88 86.57C332.96 86.57 332.83 85.75 332.71 85.53C332.37 84.87 331.23 84.02 329.51 83.15C328.5 82.65 328.16 82.52 326.93 82.17C325.92 81.87 325.37 81.66 323.5 80.87C322.85 80.59 322.23 80.36 322.12 80.34C322.01 80.33 321.81 80.35 321.67 80.4C320.95 80.64 319.91 81.27 319.71 81.59Z" id="b8RLLES5S">
</path>
<path d="M280.15 84.42C279.53 84.95 277.82 86.67 277.7 86.89C277.65 86.99 277.67 86.99 277.94 86.91C278.11 86.86 278.27 86.82 278.3 86.82C278.33 86.82 278.95 86.22 279.67 85.48C281.28 83.85 282.01 83.26 283.23 82.57C283.42 82.46 283.58 82.36 283.58 82.34C283.58 82.33 283.58 82.32 283.57 82.32C283.56 82.32 283.4 82.38 283.22 82.44C282.41 82.74 281.33 83.42 280.15 84.42Z" id="bw9xIpbkc">
</path>
<path d="M310.47 84.39C310.15 84.77 309.91 85.07 309.94 85.07C309.97 85.07 310.47 84.8 311.05 84.47C311.64 84.13 312.47 83.67 312.9 83.42C313.35 83.17 313.7 82.95 313.7 82.94C313.7 82.89 313.27 82.84 312.42 82.78C312.38 82.78 312.17 82.76 311.8 82.74L311.42 83.23C311 83.76 310.68 84.15 310.47 84.39Z" id="bChZJEor7">
</path>
<path d="M341.33 99.35C341.39 99.65 341.56 100.58 341.7 101.4C341.99 103.16 342.04 103.34 342.49 104.61C342.82 105.55 342.83 105.61 342.79 106.03C342.7 107.09 342.42 107.88 341.86 108.65C341.55 109.09 340.69 109.93 340.03 110.47C340 110.49 339.84 110.61 339.57 110.83C339.7 110.97 339.77 111.04 339.79 111.06C340.37 111.66 341.07 112.95 341.51 114.22C341.85 115.19 341.72 115.13 343.42 115.14C344.5 115.15 344.71 115.13 345.7 114.95C346.3 114.84 346.96 114.74 347.17 114.74C347.52 114.72 347.54 114.73 347.56 114.87C347.57 114.95 347.56 115.04 347.53 115.07C347.5 115.1 346.94 115.21 346.28 115.32C345.62 115.43 345.05 115.54 345.01 115.56C344.96 115.59 344.96 115.66 345.04 115.8C345.23 116.18 345.56 117.04 345.75 117.69C346.06 118.73 346.2 119.56 346.24 120.55C346.25 120.61 346.26 120.91 346.28 121.46C346.47 121.26 346.57 121.15 346.59 121.12C347.09 120.58 347.36 120.2 347.78 119.4C348.19 118.64 348.73 117.78 348.9 117.64C348.97 117.58 349.02 117.59 349.12 117.66C349.2 117.71 349.26 117.78 349.26 117.81C349.26 117.84 349.12 118.08 348.94 118.35C348.76 118.62 348.41 119.21 348.16 119.67C347.71 120.49 347.31 121.07 346.99 121.37C346.9 121.46 346.82 121.54 346.82 121.57C346.82 121.59 347.1 121.91 347.44 122.27C347.89 122.76 348.07 123.01 348.13 123.2C348.14 123.22 348.16 123.31 348.21 123.47C348.29 123.32 348.33 123.24 348.34 123.22C348.57 122.77 349 121.35 349.19 120.41C349.47 119.06 349.57 118.13 349.62 116.78C349.62 116.7 349.63 116.31 349.65 115.59C349.53 115.26 349.47 115.07 349.46 115.03C349.35 114.72 349.06 114.05 348.81 113.54C348.3 112.49 348.23 112.49 348.42 113.51C348.54 114.18 348.52 114.31 348.31 114.31C348.17 114.31 348.14 114.26 348.04 113.92C347.86 113.29 347.85 112.48 348.01 111.47C348.34 109.29 348.27 107.19 347.84 106.56C347.78 106.47 347.55 106.23 347.32 106.04C346.94 105.69 346.92 105.68 346.88 105.82C346.86 105.9 346.84 106.16 346.83 106.38C346.82 106.96 346.66 107.81 346.44 108.45C346.16 109.27 346.01 110.03 346.01 110.64C346.01 111.18 346.01 111.19 345.85 111.23C345.76 111.25 345.66 111.24 345.62 111.19C345.41 110.99 345.58 109.56 345.92 108.54C346.2 107.76 346.32 107.11 346.37 106.33C346.37 106.28 346.38 106.03 346.41 105.57C346.29 105.32 346.22 105.19 346.21 105.16C345.94 104.62 345.29 103.75 343.41 101.38C342.56 100.3 341.72 99.23 341.56 99.01C341.24 98.61 341.2 98.57 341.2 98.7C341.2 98.75 341.26 99.03 341.33 99.35Z" id="g5txNsVlW">
</path>
<path d="M270.64 100.17C270.56 100.33 270.37 100.66 270.23 100.91C269.42 102.26 269.45 103.63 270.34 105.47C270.79 106.43 271.33 107.21 272.09 108.04C272.34 108.31 272.46 108.5 272.5 108.69C272.78 109.79 272.85 110.06 273.03 110.48C273.53 111.68 274.75 113.07 276.05 113.93C277.3 114.76 278.83 115.45 280.4 115.91C281.16 116.13 283.07 116.54 283.12 116.49C283.16 116.45 283.45 113.91 283.42 113.84C283.4 113.79 283.18 113.66 282.94 113.53C282.91 113.52 282.76 113.44 282.49 113.3C282.28 113.5 282.16 113.62 282.14 113.64C281.62 114.13 281.08 114.4 280.62 114.41C280.11 114.41 280.03 114.37 280.07 114.13C280.1 113.94 280.1 113.94 280.48 113.94C280.73 113.94 280.95 113.89 281.13 113.81C281.4 113.68 282.02 113.16 282.02 113.06C282.02 113.03 281.84 112.8 281.62 112.56C281.39 112.32 281.08 111.94 280.92 111.71C280.63 111.33 280.59 111.3 280.05 111.09C279.75 110.98 279.27 110.75 279.01 110.59C278.43 110.25 278.54 110.23 277.15 110.88C275.97 111.43 275.6 111.53 274.87 111.48C274.56 111.46 274.17 111.41 273.99 111.36C273.7 111.28 273.68 111.27 273.7 111.09C273.71 110.99 273.73 110.89 273.74 110.88C273.75 110.87 273.95 110.89 274.17 110.93C274.74 111.03 275.51 111.02 275.9 110.9C276.39 110.76 277.54 110.2 277.5 110.13C277.48 110.1 277.25 110.04 277 110C276.37 109.89 275.66 109.66 275.36 109.46C274.58 108.93 273.76 108.03 273.02 106.91C272.42 106.01 272.24 105.51 272.14 104.45C272 102.91 272.22 102 272.9 101.28C273.07 101.1 273.21 100.93 273.21 100.9C273.2 100.87 272.97 100.71 272.69 100.54C272.4 100.38 272 100.1 271.8 99.93C271.39 99.6 271.19 99.55 270.95 99.75C270.87 99.81 270.73 100 270.64 100.17Z" id="dvncpxYgS">
</path>
<path d="M282.58 112.61C282.85 112.78 283.48 113.13 283.55 113.13C283.58 113.13 283.9 112.44 283.9 112.38C283.9 112.34 283.65 112.26 283.35 112.19C283.05 112.13 282.6 111.99 282.34 111.91C281.73 111.7 281.67 111.7 281.82 111.92C281.99 112.15 282.24 112.38 282.58 112.61Z" id="a1K1E3AE5t">
</path>
<path d="M345.94 122.42C345.86 122.55 345.59 122.94 345.34 123.3C345.08 123.67 344.87 124.04 344.85 124.17C344.82 124.3 344.84 124.77 344.88 125.22C344.96 126.05 344.94 126.29 344.74 127.11C344.69 127.32 344.67 127.5 344.7 127.5C344.72 127.5 344.97 127.36 345.24 127.18C345.91 126.74 346.89 125.74 347.41 124.95C347.44 124.91 347.58 124.69 347.84 124.31C347.82 124.01 347.81 123.84 347.81 123.81C347.77 123.21 347.69 123.08 347 122.39C346.96 122.36 346.79 122.19 346.48 121.88L346.28 122.03C346.11 122.21 345.99 122.33 345.94 122.42Z" id="b14dKVFWQ1">
</path>
<path d="M306.99 127.76C306.9 127.84 307.62 129.22 308.13 129.94C308.65 130.66 309.51 131.57 310.17 132.09C310.45 132.31 310.74 132.55 310.8 132.64C311 132.85 313.02 136.28 313.78 137.69C314.47 138.95 315.61 141.25 315.85 141.82C316.25 142.81 316.59 143.33 317.2 143.94C317.62 144.36 317.84 144.53 318.22 144.71C318.82 145 319.15 145.03 319.83 144.91C320.47 144.78 320.58 144.69 320.58 144.22C320.58 143.68 320.4 143.1 319.45 140.44C319.27 139.94 319.08 139.3 319.02 139.03C319.02 139 318.98 138.83 318.92 138.54C318.47 138.3 318.22 138.16 318.17 138.14C316.59 137.28 314.59 135.94 313.92 135.27C313.25 134.6 312.99 133.92 312.82 132.48C312.72 131.52 312.62 131.26 311.86 129.79C311.47 129.02 311.05 128.14 310.92 127.82C310.91 127.79 310.83 127.59 310.69 127.25C310.33 127.26 310.13 127.26 310.09 127.26C309.76 127.26 309.39 127.28 309.27 127.29C308.21 127.4 307.13 127.62 306.99 127.76Z" id="a6SSwlJuZi">
</path>
<path d="M311.27 127.47C311.3 127.56 311.42 127.61 311.74 127.67C311.98 127.72 312.94 127.94 313.86 128.16C317.69 129.09 317.99 129.13 321.03 129.12C322.3 129.12 323.36 129.14 323.38 129.16C323.5 129.28 323.01 129.31 320.88 129.31C317.87 129.31 317.68 129.29 313.99 128.41C311.34 127.77 311.45 127.8 311.45 127.94C311.45 128.22 311.69 128.36 312.66 128.68C313.87 129.07 314.69 129.28 315.8 129.47C317.8 129.8 319.44 129.82 321.72 129.53C322.47 129.43 323.1 129.37 323.12 129.4C323.23 129.51 322.91 129.59 321.54 129.75C318.29 130.15 315.48 129.87 312.46 128.84C312.1 128.72 311.8 128.64 311.79 128.64C311.77 128.66 311.85 128.84 311.96 129.05C312.17 129.47 312.16 129.47 312.89 129.53C313.15 129.55 314.19 129.74 315.21 129.94C317.32 130.37 318.33 130.46 319.64 130.37C320.5 130.32 320.83 130.25 322.47 129.84C323.61 129.55 323.83 129.52 323.83 129.62C323.83 129.69 323.71 129.73 322.05 130.15C319.57 130.79 318.26 130.78 314.92 130.1C313.53 129.81 312.47 129.65 312.4 129.72C312.39 129.74 312.43 129.88 312.5 130.03C312.61 130.25 312.67 130.31 312.8 130.31C312.89 130.31 313.45 130.4 314.04 130.52C315.81 130.88 316.55 130.95 318.3 130.95C319.92 130.95 320.56 130.91 322.52 130.65C324 130.45 324.47 130.35 325.02 130.12C325.55 129.9 325.52 129.91 325.52 130.02C325.52 130.14 324.97 130.4 324.47 130.53C324.27 130.59 323.63 130.69 323.05 130.78C320.81 131.1 320.18 131.15 318.36 131.15C316.42 131.15 315.86 131.1 313.93 130.71C313.35 130.59 312.84 130.5 312.8 130.5C312.77 130.5 312.97 130.74 313.27 131.03C314.19 131.95 314.83 132.18 316.7 132.23C318.12 132.27 318.79 132.2 321.84 131.69C325.63 131.05 325.76 131.05 328.95 131.75C329.73 131.92 330.5 132.07 330.67 132.1C330.69 132.1 330.8 132.11 330.98 132.14C330.87 132.02 330.81 131.95 330.8 131.94C330.55 131.67 329.75 131.03 329.33 130.76C328.8 130.42 328.11 130.17 326.36 129.69C324.65 129.21 324.35 129.1 324.52 129.03C324.64 128.99 327.31 129.7 328.22 130.02C329 130.29 329.61 130.65 330.33 131.25C330.65 131.53 331.05 131.85 331.19 131.98C331.21 132 331.3 132.07 331.46 132.21L332.22 132.24L332.98 132.27C332.61 131.87 332.4 131.64 332.36 131.6C331.53 130.7 331.15 130.35 330.53 129.95C329.67 129.39 328.81 129.08 327.15 128.72C326.56 128.6 326.23 128.5 326.22 128.44C326.18 128.33 326.55 128.38 327.7 128.64C330 129.15 330.87 129.68 332.78 131.73C333.19 132.17 333.36 132.31 333.48 132.31C333.59 132.31 333.64 132.34 333.64 132.42C333.64 132.5 333.55 132.51 332.71 132.47C331.34 132.41 330.4 132.29 328.85 131.94C327 131.52 326.43 131.44 325.57 131.44C324.83 131.44 323.4 131.59 323.31 131.68C323.28 131.7 323.48 131.76 323.76 131.8C324.03 131.84 324.9 132.04 325.68 132.22C328.54 132.91 328 132.84 330.66 132.84C332.38 132.84 333.01 132.86 333.01 132.91C333.01 133.02 332.3 133.07 330.42 133.07C328.44 133.08 328.31 133.07 326.08 132.53C325.17 132.31 324.15 132.09 323.83 132.04C323.5 131.98 323.05 131.9 322.83 131.87C322.46 131.8 322.3 131.82 321.08 132.02C320.34 132.14 319.58 132.26 319.41 132.29C319.23 132.3 319.1 132.35 319.12 132.38C319.13 132.41 319.31 132.48 319.5 132.54C319.7 132.59 320.42 132.86 321.1 133.14C322.55 133.71 323.25 133.92 324.36 134.15C326.86 134.64 329.12 134.85 330.8 134.75C331.56 134.7 332.96 134.52 333.53 134.4C333.66 134.37 333.7 134.39 333.7 134.45C333.7 134.57 333.4 134.65 332.26 134.8C330.99 134.98 330.02 135.02 328.83 134.94C325.93 134.75 323.48 134.28 321.55 133.53C319.97 132.91 319.52 132.75 319.15 132.65C318.83 132.57 318.8 132.57 318.19 132.78C317.5 133.02 317.45 133.03 317.45 132.93C317.45 132.9 317.62 132.8 317.82 132.71C318.01 132.63 318.23 132.53 318.3 132.5C318.38 132.45 318.12 132.45 317.52 132.47C315.62 132.55 314.33 132.25 313.47 131.52C313.29 131.36 313.12 131.25 313.1 131.27C313.09 131.29 313.1 131.44 313.13 131.6C313.17 131.77 313.24 132.25 313.3 132.67C313.52 134.34 313.8 134.77 315.52 135.98C316.23 136.49 317.39 137.2 318.28 137.7C319.16 138.19 320.01 138.48 321.32 138.75C322.18 138.92 322.44 138.95 323.54 138.97C324.23 138.98 325.25 139.04 325.81 139.1C326.86 139.22 327.56 139.19 328.64 138.99C329.02 138.92 329.03 138.91 328.86 138.86C328.76 138.83 327.67 138.78 326.45 138.75C325.02 138.71 324.06 138.66 323.73 138.6C320.35 137.99 317.54 136.67 315.99 134.99C315.96 134.96 315.82 134.8 315.57 134.53C315.7 134.79 315.78 134.94 315.79 134.97C316.1 135.57 316.49 136.04 316.96 136.4C318.12 137.27 319.98 138.14 321.23 138.39C321.8 138.5 321.88 138.66 321.35 138.6C320.49 138.52 318.55 137.71 317.43 136.98C316.79 136.56 316.16 135.97 315.86 135.52C315.52 135.01 314.64 132.8 314.73 132.7C314.8 132.63 314.95 132.83 315.08 133.2C315.29 133.78 315.33 133.77 315.33 133.2C315.33 132.92 315.35 132.69 315.39 132.69C315.46 132.69 315.5 132.91 315.54 133.55C315.58 134.14 315.75 134.42 316.45 135.13C318.26 136.94 322.04 138.4 325.3 138.54C325.88 138.56 326.08 138.55 326.02 138.5C325.97 138.47 325.85 138.44 325.76 138.44C325.58 138.44 323.52 138.1 322.83 137.96C319.83 137.35 318.61 136.57 316.6 133.99C315.97 133.18 315.87 133.02 315.95 132.97C316.02 132.92 316.13 133.03 316.57 133.62C317.17 134.39 317.04 134.34 318.42 134.38C319.35 134.41 320.05 134.49 321.58 134.71C325.41 135.26 325.93 135.32 326.78 135.3C327.58 135.28 327.84 135.35 327.36 135.45C326.76 135.59 325.25 135.46 322.36 135.04C319.53 134.62 318.08 134.47 318.17 134.61C318.28 134.8 321.54 135.85 322.93 136.16C323.31 136.24 323.78 136.27 325.02 136.27C325.12 136.27 325.65 136.28 326.61 136.29C327.18 136.42 327.5 136.5 327.56 136.52C328.55 136.76 329.21 136.87 329.72 136.87C329.95 136.87 330.01 136.9 330.01 136.97C330.01 137.15 328.86 137.05 327.73 136.79C326.51 136.49 326 136.44 324.47 136.44C323.08 136.44 322.89 136.4 321.27 135.94C319.49 135.42 317.97 134.85 317.92 134.68C317.89 134.59 317.82 134.56 317.64 134.56C317.5 134.56 317.39 134.58 317.39 134.6C317.4 134.74 317.78 135.09 318.09 135.27C318.29 135.38 318.68 135.62 318.97 135.82C319.55 136.22 320.04 136.41 321.26 136.72C323.31 137.23 325.49 137.55 327.58 137.66C328.52 137.7 329.39 137.62 330.02 137.44C330.45 137.3 330.64 137.28 330.64 137.36C330.64 137.43 330.27 137.59 329.8 137.73C329.48 137.82 329.18 137.84 328 137.83C325.99 137.82 324.55 137.65 322.23 137.15C320.45 136.77 319.42 136.44 318.87 136.05C318.86 136.04 318.79 136 318.67 135.91C318.75 136 318.79 136.04 318.8 136.05C318.87 136.14 319.08 136.3 319.27 136.44C320.34 137.17 321.64 137.57 324.36 138.02C326.8 138.43 328.2 138.4 330.06 137.93C330.61 137.79 330.86 137.75 330.9 137.8C330.99 137.89 330.83 137.95 330.05 138.16C329.58 138.29 328.36 138.49 327.96 138.5C327.88 138.5 327.88 138.52 327.98 138.56C328.35 138.72 330.16 138.55 331.76 138.22C332.3 138.1 332.91 137.87 332.85 137.8C332.82 137.78 332.55 137.67 332.23 137.56C330.8 137.05 328.31 135.69 327.98 135.22C327.8 134.97 328.01 135.06 328.74 135.55C329.7 136.2 331.51 137.11 332.48 137.44C332.89 137.57 333.27 137.69 333.32 137.69C333.48 137.69 334.48 137.19 334.41 137.13C334.27 137 332.02 136.17 331.26 135.96C329.67 135.54 329.55 135.5 329.46 135.4C329.37 135.32 329.38 135.31 329.48 135.31C329.8 135.31 332.27 136.03 333.14 136.38C334.71 137 334.74 137.01 334.99 136.9C335.11 136.85 335.2 136.79 335.2 136.77C335.2 136.74 334.98 136.61 334.71 136.49C334.05 136.17 332.72 135 333.03 135C333.08 135 333.38 135.24 333.72 135.53C334.33 136.06 334.5 136.17 335.15 136.45C335.17 136.46 335.29 136.52 335.49 136.61C335.69 136.46 335.8 136.38 335.82 136.36C335.99 136.23 336.14 136.09 336.14 136.07C336.14 135.98 334.92 135.44 334.16 135.2C333.48 134.97 333.2 134.81 333.51 134.81C333.73 134.81 334.94 135.23 335.67 135.56C335.72 135.58 335.94 135.69 336.36 135.87C336.53 135.68 336.63 135.58 336.64 135.55C337.06 135.1 337.76 133.85 337.76 133.55C337.76 133.2 337.53 131.89 337.38 131.41C337.12 130.58 336.45 129.78 335.34 128.94C334.89 128.61 334.76 128.54 334.42 128.49C334.21 128.46 333.89 128.44 333.73 128.45C333.71 128.45 333.6 128.46 333.42 128.47C333.55 128.54 333.62 128.58 333.63 128.59C335.36 129.62 336.34 130.62 336.69 131.69C336.94 132.45 337.21 133.63 337.17 133.74C337.11 133.9 337.06 133.77 336.74 132.6C336.58 132.02 336.38 131.41 336.28 131.24C335.84 130.42 334.97 129.64 333.68 128.89C333.63 128.86 333.37 128.71 332.9 128.44C332.6 128.44 332.44 128.44 332.41 128.44C331.68 128.44 331.67 128.5 332.33 128.84C333.46 129.41 333.91 129.79 335 131.05C335.85 132.04 336.13 132.43 336.56 133.25C336.96 134 337 134.12 336.83 134.12C336.74 134.12 336.69 134.05 336.63 133.89C336.53 133.58 336.07 132.76 335.71 132.25C335.04 131.3 333.74 129.93 333.13 129.52C332.23 128.92 330.75 128.32 330.34 128.38C330.21 128.41 330.24 128.44 330.59 128.69C330.8 128.86 331.33 129.18 331.76 129.42C332.2 129.67 332.78 130 333.08 130.16C333.46 130.39 333.77 130.63 334.23 131.09C334.8 131.66 334.91 131.82 335.47 132.79C336.06 133.84 336.14 134 336.01 134C335.93 134 335.66 133.59 335.23 132.81C334.33 131.18 334.04 130.92 331.5 129.51C331.11 129.3 330.55 128.93 330.25 128.69C330.21 128.66 330.03 128.52 329.7 128.27C329.32 128.22 329.11 128.2 329.06 128.19C327.81 128.04 326.34 128.11 325.55 128.35C325.28 128.43 325.05 128.44 324.02 128.38C323.35 128.34 322.05 128.31 321.13 128.31C319.68 128.31 319.45 128.3 319.45 128.22C319.45 128.14 319.63 128.12 320.66 128.12C322.08 128.11 321.97 128.07 319.67 127.84C317.84 127.66 317.64 127.62 317.64 127.56C317.64 127.47 318.05 127.49 319.8 127.66C322.08 127.87 322.31 127.89 322.2 127.82C322.01 127.71 320.05 127.41 318.95 127.34C318.32 127.3 315.97 127.41 315.75 127.49C315.65 127.53 315.78 127.59 316.31 127.77C317.86 128.28 319.02 128.48 320.87 128.53C322.24 128.57 322.58 128.61 322.58 128.7C322.58 128.75 322.13 128.76 321 128.73C318.67 128.67 317.69 128.48 315.24 127.61C315.1 127.56 314.64 127.5 314.2 127.47C313.77 127.45 313.07 127.39 312.64 127.34C311.78 127.24 311.29 127.22 311.25 127.29C311.23 127.32 311.24 127.4 311.27 127.47ZM329.01 133.44C332.13 133.5 332.73 133.55 333.66 133.79C334.36 133.96 334.7 134.12 334.7 134.28C334.7 134.43 334.55 134.45 334.29 134.34C333.77 134.13 332.79 133.93 331.96 133.87C331.49 133.84 329.97 133.79 328.58 133.75C325.28 133.68 324.98 133.62 323.23 132.77C322.78 132.55 322.37 132.34 322.33 132.28C322.24 132.18 322.28 132 322.4 132C322.43 132 322.83 132.18 323.29 132.4C325.13 133.3 325.43 133.35 329.01 133.44ZM313.7 133.09C313.7 133.32 313.78 133.55 313.95 133.94C314.09 134.22 314.19 134.47 314.17 134.49C314.02 134.64 313.59 133.79 313.51 133.2C313.43 132.55 313.44 132.05 313.54 132.07C313.57 132.09 313.63 132.25 313.65 132.44C313.67 132.63 313.7 132.92 313.7 133.09ZM325.23 134.04C325.75 134.16 325.97 134.16 331.48 134.1C332.25 134.1 332.6 134.11 332.62 134.16C332.65 134.25 330.38 134.34 327.7 134.34C325 134.34 325.16 134.38 322.95 133.28C322.03 132.82 321.26 132.41 321.23 132.37C321.12 132.19 321.69 132.42 323.17 133.15C324.35 133.74 324.86 133.95 325.23 134.04ZM315.45 135.44C315.85 135.89 315.95 136.06 315.86 136.06C315.79 136.06 315.18 135.45 314.89 135.09C314.33 134.39 314.04 133.51 314.13 132.78C314.18 132.35 314.3 132.59 314.34 133.2C314.39 134.05 314.58 134.42 315.45 135.44Z" id="bJepyL7Dw">
</path>
<path d="M323.66 128.11C323.7 128.09 323.67 128.07 323.58 128.07C323.49 128.07 323.46 128.09 323.5 128.11C323.54 128.12 323.62 128.12 323.66 128.11Z" id="cw9iX1YGn">
</path>
<path d="M335.74 129C336.54 129.59 337.1 130.25 337.43 130.97C337.52 131.17 337.67 131.72 337.76 132.2C337.86 132.68 337.95 133.09 337.97 133.1C337.99 133.12 338.04 133.02 338.08 132.9C338.13 132.74 338.14 132.44 338.12 131.95C338.09 131.29 338.07 131.19 337.86 130.79C337.71 130.48 337.44 130.11 337.01 129.64C336.67 129.25 336.33 128.91 336.27 128.88C336.13 128.81 335.45 128.69 335.45 128.74C335.45 128.76 335.59 128.88 335.74 129Z" id="a5MQJ2HtDe">
</path>
<path d="M337.64 128.94C337.64 128.97 337.83 129.28 338.08 129.61C338.31 129.94 338.63 130.45 338.77 130.74C338.99 131.2 339.04 131.25 339.09 131.15C339.13 131.09 339.17 130.85 339.18 130.63C339.21 130.29 339.18 130.11 339.01 129.59C338.91 129.25 338.77 128.93 338.71 128.89C338.62 128.81 338.46 128.81 337.91 128.86C337.76 128.87 337.64 128.91 337.64 128.94Z" id="caQUDW7UqE">
</path>
<path d="M337.23 129.56C337.52 129.89 337.84 130.29 337.94 130.47C338.17 130.84 338.33 131.4 338.33 131.85C338.33 132.04 338.35 132.19 338.38 132.19C338.4 132.19 338.54 132.07 338.69 131.92C338.71 131.9 338.79 131.81 338.94 131.65C338.8 131.33 338.72 131.15 338.71 131.11C338.58 130.81 338.4 130.46 338.32 130.33C338.04 129.88 337.38 129 337.26 128.94C337.13 128.86 336.7 128.86 336.7 128.92C336.7 128.95 336.94 129.24 337.23 129.56Z" id="hsH3S9i4g">
</path>
<path d="M280.77 525.53L279.45 525.58L278.14 525.62C278.14 525.75 278.14 525.83 278.14 525.84C278.14 526.04 278.13 526.05 277.97 526.02C277.87 526 277.53 525.94 277.2 525.89C276.88 525.83 276.56 525.78 276.5 525.76C276.41 525.73 276.39 525.77 276.39 525.95C276.39 526.2 276.35 526.21 275.94 526.12C275.93 526.11 275.85 526.09 275.7 526.06C275.7 526.19 275.7 526.26 275.7 526.28C275.7 526.48 275.69 526.5 275.55 526.47C275.4 526.44 275.39 526.46 275.39 526.65C275.39 526.9 275.41 526.9 274.49 526.73C274.12 526.67 273.79 526.61 273.75 526.61C273.73 526.61 273.7 537.22 273.7 550.19C273.7 551.76 273.7 559.62 273.7 573.77C279.19 574.74 282.24 575.27 282.85 575.38C287.87 576.26 296.22 577.73 301.39 578.64C306.57 579.56 310.85 580.31 310.92 580.33C311.02 580.35 311.07 580.44 311.12 580.67C311.33 581.54 312.31 582.2 313.52 582.28C314.9 582.37 316.32 581.47 316.33 580.5C316.33 580.39 316.35 580.3 316.37 580.3C316.4 580.3 349.52 574.47 352.39 573.96C353.05 573.84 353.62 573.74 353.65 573.74C353.68 573.74 353.7 563.12 353.7 550.14C353.7 548.57 353.7 540.7 353.7 526.55C353.62 526.57 353.58 526.58 353.57 526.58C353.23 526.65 351.98 526.86 351.88 526.86C351.8 526.86 351.77 526.81 351.77 526.7C351.77 526.57 351.74 526.54 351.63 526.56C351.51 526.58 351.48 526.55 351.47 526.37C351.45 526.22 351.42 526.17 351.34 526.2C351.29 526.21 351.13 526.24 351 526.27C350.99 526.27 350.91 526.28 350.77 526.3C350.77 526.17 350.77 526.09 350.77 526.08C350.77 525.86 350.75 525.85 350.6 525.88C350.5 525.9 350.09 525.98 349.67 526.05C349.26 526.12 348.87 526.19 348.82 526.21C348.72 526.24 348.7 526.2 348.7 525.93C348.7 525.91 348.7 525.81 348.7 525.63C348.36 525.6 348.17 525.59 348.13 525.58C347.82 525.57 347.23 525.55 346.82 525.55C346.77 525.55 346.52 525.55 346.08 525.55C346.08 524.8 346.08 524.38 346.08 524.3C346.08 523.61 346.07 523.05 346.05 523.05C346.04 523.05 345.64 523.2 345.17 523.39C343.49 524.06 341.63 524.6 340.11 524.87C338.91 525.08 337.35 525.06 334.67 524.81C331.42 524.5 330.73 524.47 328.71 524.5C326.4 524.55 324.85 524.73 323.35 525.14C320.43 525.94 316.97 528.2 314.12 531.18C314.07 531.23 313.84 531.46 313.44 531.89C312.76 531.22 312.38 530.84 312.3 530.77C309.04 527.52 305.68 525.52 302.45 524.9C300.7 524.56 300.11 524.52 297.39 524.52C294.98 524.52 294.75 524.53 292.45 524.75C291.13 524.87 289.72 524.99 289.33 525.02C287.31 525.13 284.58 524.55 281.62 523.37C281.19 523.19 280.81 523.05 280.8 523.05C280.78 523.05 280.77 523.6 280.77 524.29C280.77 524.46 280.77 524.87 280.77 525.53Z" id="a3gBCWbNjF">
</path>
</defs><g><g><g><g><filter id="shadow12477610" x="110.69" y="176.12" width="408.33" height="308.01" filterUnits="userSpaceOnUse" primitiveUnits="userSpaceOnUse"><feFlood></feFlood><feComposite in2="SourceAlpha" operator="in"></feComposite><feGaussianBlur stdDeviation="1"></feGaussianBlur><feOffset dx="1" dy="1" result="afterOffset"></feOffset><feFlood flood-color="#000000" flood-opacity="0.5"></feFlood><feComposite in2="afterOffset" operator="in"></feComposite><feMorphology operator="dilate" radius="1"></feMorphology><feComposite in2="SourceAlpha" operator="out"></feComposite></filter><path d="M367.35 244.83C470.71 309.41 530.88 399.85 501.63 446.66C472.38 493.46 364.72 479.02 261.36 414.44C158.01 349.85 97.84 259.41 127.08 212.61C156.33 165.8 263.99 180.24 367.35 244.83Z" id="b9D9Fzlol" fill="white" fill-opacity="1" filter="url(#shadow12477610)"></path></g><use xlink:href="#a2uPvUAhFy" opacity="1" fill="#f2f2f8" fill-opacity="0"></use><g><use xlink:href="#a2uPvUAhFy" opacity="1" fill-opacity="0" stroke="#f91515" stroke-width="1" stroke-opacity="1"></use></g></g><g><use xlink:href="#d5giPFX1HB" opacity="1" fill="#dd1010" fill-opacity="1"></use></g><g><g><filter id="shadow14984006" x="126.21" y="159.46" width="377.29" height="345.74" filterUnits="userSpaceOnUse" primitiveUnits="userSpaceOnUse"><feFlood></feFlood><feComposite in2="SourceAlpha" operator="in"></feComposite><feGaussianBlur stdDeviation="1"></feGaussianBlur><feOffset dx="1" dy="1" result="afterOffset"></feOffset><feFlood flood-color="#000000" flood-opacity="0.5"></feFlood><feComposite in2="afterOffset" operator="in"></feComposite><feMorphology operator="dilate" radius="1"></feMorphology><feComposite in2="SourceAlpha" operator="out"></feComposite></filter><path d="M379.96 407.3C287.98 487.27 183.9 518.37 147.69 476.71C111.48 435.06 156.76 336.32 248.75 256.36C340.73 176.4 444.81 145.3 481.02 186.95C517.23 228.61 471.95 327.34 379.96 407.3Z" id="cNNfvH8Sz" fill="white" fill-opacity="1" filter="url(#shadow14984006)"></path></g><use xlink:href="#iK5lS83rR" opacity="1" fill="#f2f2f7" fill-opacity="0"></use><g><use xlink:href="#iK5lS83rR" opacity="1" fill-opacity="0" stroke="#f91515" stroke-width="1" stroke-opacity="1"></use></g></g><g><g><filter id="shadow16421173" x="205.36" y="102" width="219" height="460.67" filterUnits="userSpaceOnUse" primitiveUnits="userSpaceOnUse"><feFlood></feFlood><feComposite in2="SourceAlpha" operator="in"></feComposite><feGaussianBlur stdDeviation="1"></feGaussianBlur><feOffset dx="1" dy="1" result="afterOffset"></feOffset><feFlood flood-color="#000000" flood-opacity="0.5"></feFlood><feComposite in2="afterOffset" operator="in"></feComposite><feMorphology operator="dilate" radius="1"></feMorphology><feComposite in2="SourceAlpha" operator="out"></feComposite></filter><path d="M414.36 331.83C414.36 453.71 369.55 552.67 314.36 552.67C259.16 552.67 214.36 453.71 214.36 331.83C214.36 209.95 259.16 111 314.36 111C369.55 111 414.36 209.95 414.36 331.83Z" id="c1vTEaa0CD" fill="white" fill-opacity="1" filter="url(#shadow16421173)"></path></g><use xlink:href="#a1qrZ95JRH" opacity="1" fill="#f2f2f7" fill-opacity="0"></use><g><use xlink:href="#a1qrZ95JRH" opacity="1" fill-opacity="0" stroke="#f91515" stroke-width="1" stroke-opacity="1"></use></g></g><g><use xlink:href="#c17tSHgGWt" opacity="1" fill="#dd1010" fill-opacity="1"></use></g><g><use xlink:href="#beu1EaMXk" opacity="1" fill="#dd1010" fill-opacity="1"></use><g><use xlink:href="#beu1EaMXk" opacity="1" fill-opacity="0" stroke="#000000" stroke-width="1" stroke-opacity="0"></use></g></g><g><use xlink:href="#cuLzszg5i" opacity="1" fill="#dd1010" fill-opacity="1"></use><g><use xlink:href="#cuLzszg5i" opacity="1" fill-opacity="0" stroke="#000000" stroke-width="1" stroke-opacity="0"></use></g></g><g><use xlink:href="#b50ZeWrHzx" opacity="1" fill="#ff0000" fill-opacity="1"></use><g><use xlink:href="#b50ZeWrHzx" opacity="1" fill-opacity="0" stroke="#000000" stroke-width="1" stroke-opacity="0"></use></g></g><g><use xlink:href="#bzxGYZY5w" opacity="1" fill="#ff0000" fill-opacity="1"></use><g><use xlink:href="#bzxGYZY5w" opacity="1" fill-opacity="0" stroke="#000000" stroke-width="1" stroke-opacity="0"></use></g></g><g><use xlink:href="#a1eM99rIR7" opacity="1" fill="#ff0000" fill-opacity="1"></use><g><use xlink:href="#a1eM99rIR7" opacity="1" fill-opacity="0" stroke="#000000" stroke-width="1" stroke-opacity="0"></use></g></g><g><use xlink:href="#c97dU6Dtu" opacity="1" fill="#ff0000" fill-opacity="1"></use><g><use xlink:href="#c97dU6Dtu" opacity="1" fill-opacity="0" stroke="#000000" stroke-width="1" stroke-opacity="0"></use></g></g><g><use xlink:href="#j33DB3Zq0S" opacity="1" fill="#ff0000" fill-opacity="1"></use><g><use xlink:href="#j33DB3Zq0S" opacity="1" fill-opacity="0" stroke="#000000" stroke-width="1" stroke-opacity="0"></use></g></g><g><use xlink:href="#i30PLbpvHG" opacity="1" fill="#ff0000" fill-opacity="1"></use><g><use xlink:href="#i30PLbpvHG" opacity="1" fill-opacity="0" stroke="#000000" stroke-width="1" stroke-opacity="0"></use></g></g><g><use xlink:href="#b21ebRZUt7" opacity="1" fill="#ff0000" fill-opacity="1"></use><g><use xlink:href="#b21ebRZUt7" opacity="1" fill-opacity="0" stroke="#000000" stroke-width="1" stroke-opacity="0"></use></g></g><g><use xlink:href="#drOUlqmhp" opacity="1" fill="#ff0000" fill-opacity="1"></use><g><use xlink:href="#drOUlqmhp" opacity="1" fill-opacity="0" stroke="#000000" stroke-width="1" stroke-opacity="0"></use></g></g><g><use xlink:href="#bIQI2XxvT" opacity="1" fill="#ff0000" fill-opacity="1"></use><g><use xlink:href="#bIQI2XxvT" opacity="1" fill-opacity="0" stroke="#000000" stroke-width="1" stroke-opacity="0"></use></g></g><g><use xlink:href="#aDk7aqALe" opacity="1" fill="#ff0000" fill-opacity="1"></use><g><use xlink:href="#aDk7aqALe" opacity="1" fill-opacity="0" stroke="#000000" stroke-width="1" stroke-opacity="0"></use></g></g><g><use xlink:href="#a1te2Tr7EP" opacity="1" fill="#dd1010" fill-opacity="1"></use><g><use xlink:href="#a1te2Tr7EP" opacity="1" fill-opacity="0" stroke="#000000" stroke-width="1" stroke-opacity="0"></use></g></g><g><use xlink:href="#b26xt5fndm" opacity="1" fill="#dd1010" fill-opacity="1"></use><g><use xlink:href="#b26xt5fndm" opacity="1" fill-opacity="0" stroke="#000000" stroke-width="1" stroke-opacity="0"></use></g></g><g><use xlink:href="#a2JFQY7au1" opacity="1" fill="#dd1010" fill-opacity="1"></use><g><use xlink:href="#a2JFQY7au1" opacity="1" fill-opacity="0" stroke="#000000" stroke-width="1" stroke-opacity="0"></use></g></g><g><use xlink:href="#b1aV9hrRHJ" opacity="1" fill="#dd1010" fill-opacity="1"></use><g><use xlink:href="#b1aV9hrRHJ" opacity="1" fill-opacity="0" stroke="#000000" stroke-width="1" stroke-opacity="0"></use></g></g><g><use xlink:href="#b8RLLES5S" opacity="1" fill="#dd1010" fill-opacity="1"></use><g><use xlink:href="#b8RLLES5S" opacity="1" fill-opacity="0" stroke="#000000" stroke-width="1" stroke-opacity="0"></use></g></g><g><use xlink:href="#bw9xIpbkc" opacity="1" fill="#dd1010" fill-opacity="1"></use><g><use xlink:href="#bw9xIpbkc" opacity="1" fill-opacity="0" stroke="#000000" stroke-width="1" stroke-opacity="0"></use></g></g><g><use xlink:href="#bChZJEor7" opacity="1" fill="#dd1010" fill-opacity="1"></use><g><use xlink:href="#bChZJEor7" opacity="1" fill-opacity="0" stroke="#000000" stroke-width="1" stroke-opacity="0"></use></g></g><g><use xlink:href="#g5txNsVlW" opacity="1" fill="#dd1010" fill-opacity="1"></use><g><use xlink:href="#g5txNsVlW" opacity="1" fill-opacity="0" stroke="#000000" stroke-width="1" stroke-opacity="0"></use></g></g><g><use xlink:href="#dvncpxYgS" opacity="1" fill="#dd1010" fill-opacity="1"></use><g><use xlink:href="#dvncpxYgS" opacity="1" fill-opacity="0" stroke="#000000" stroke-width="1" stroke-opacity="0"></use></g></g><g><use xlink:href="#a1K1E3AE5t" opacity="1" fill="#dd1010" fill-opacity="1"></use><g><use xlink:href="#a1K1E3AE5t" opacity="1" fill-opacity="0" stroke="#000000" stroke-width="1" stroke-opacity="0"></use></g></g><g><use xlink:href="#b14dKVFWQ1" opacity="1" fill="#dd1010" fill-opacity="1"></use><g><use xlink:href="#b14dKVFWQ1" opacity="1" fill-opacity="0" stroke="#000000" stroke-width="1" stroke-opacity="0"></use></g></g><g><use xlink:href="#a6SSwlJuZi" opacity="1" fill="#dd1010" fill-opacity="1"></use><g><use xlink:href="#a6SSwlJuZi" opacity="1" fill-opacity="0" stroke="#000000" stroke-width="1" stroke-opacity="0"></use></g></g><g><use xlink:href="#bJepyL7Dw" opacity="1" fill="#dd1010" fill-opacity="1"></use><g><use xlink:href="#bJepyL7Dw" opacity="1" fill-opacity="0" stroke="#000000" stroke-width="1" stroke-opacity="0"></use></g></g><g><use xlink:href="#cw9iX1YGn" opacity="1" fill="#dd1010" fill-opacity="1"></use><g><use xlink:href="#cw9iX1YGn" opacity="1" fill-opacity="0" stroke="#000000" stroke-width="1" stroke-opacity="0"></use></g></g><g><use xlink:href="#a5MQJ2HtDe" opacity="1" fill="#dd1010" fill-opacity="1"></use><g><use xlink:href="#a5MQJ2HtDe" opacity="1" fill-opacity="0" stroke="#000000" stroke-width="1" stroke-opacity="0"></use></g></g><g><use xlink:href="#caQUDW7UqE" opacity="1" fill="#dd1010" fill-opacity="1"></use><g><use xlink:href="#caQUDW7UqE" opacity="1" fill-opacity="0" stroke="#000000" stroke-width="1" stroke-opacity="0"></use></g></g><g><use xlink:href="#hsH3S9i4g" opacity="1" fill="#dd1010" fill-opacity="1"></use><g><use xlink:href="#hsH3S9i4g" opacity="1" fill-opacity="0" stroke="#000000" stroke-width="1" stroke-opacity="0"></use></g></g><g><use xlink:href="#a3gBCWbNjF" opacity="1" fill="#dd1010" fill-opacity="1"></use><g><use xlink:href="#a3gBCWbNjF" opacity="1" fill-opacity="0" stroke="#000000" stroke-width="1" stroke-opacity="0"></use></g></g></g></g></svg>