<?xml version="1.0" encoding="UTF-8" standalone="no"?>
<!DOCTYPE svg PUBLIC "-//W3C//DTD SVG 1.1//EN" "http://www.w3.org/Graphics/SVG/1.1/DTD/svg11.dtd">
<svg version="1.1" xmlns="http://www.w3.org/2000/svg" xmlns:xlink="http://www.w3.org/1999/xlink" preserveAspectRatio="xMidYMid meet" viewBox="0 0 640 640" width="640" height="640"><defs><path d="M311.82 25.72C302.11 29.23 291.7 39.13 286.03 50.2C283.31 55.49 282.65 57.65 281.43 64.92C279.74 74.81 279.6 76.97 279.88 88.13C280.16 98.87 280.16 98.92 278.99 101.73C277.26 105.81 277.07 107.55 277.91 111.16C279.74 119.04 285.09 127.62 293.34 135.82C297.98 140.47 299.44 142.25 300.7 144.87C300.81 145.09 301.34 146.17 302.3 148.11C302.38 154.97 302.43 158.79 302.44 159.55C302.63 172.35 302.34 174.42 299.91 179.34C295.36 188.39 282.51 195 263.85 197.86C261.27 198.24 254.75 198.8 249.31 199.08C242.27 199.41 238.57 199.83 236.41 200.44C227.27 203.12 217.19 212.68 211.47 224.12C207.57 231.86 206.54 237.63 206.07 253.9C205.79 265.2 206.21 271.53 207.9 281.33C208.51 285.09 208.93 289.92 209.07 295.87C209.31 305.2 208.98 308.58 206.92 318.15C205.32 325.7 204.95 330.43 204.57 347.92C204.15 366.31 204.06 367.01 201.24 370.81C198.15 375.03 184.92 382.81 158.1 396.22C150.5 400.02 142.86 403.63 141.08 404.24C139.34 404.81 133.11 406.4 127.25 407.71C121.38 409.03 115.57 410.62 114.26 411.23C111.86 412.31 105.02 413.34 100.14 413.34C94.19 413.34 86.35 411.09 70.64 404.9C60.38 400.87 55.78 399.46 50.81 398.99C49.07 398.8 47.25 398.38 46.73 398.05C45.37 397.21 32.85 394.11 30.79 394.11C28.49 394.11 26.24 396.32 25.25 399.55C24.88 400.82 23.8 403.12 22.86 404.67C20.42 408.65 20 410.48 20 416.86C20.05 423.14 21.08 428.67 23.8 437.35C24.64 440.16 25.58 443.73 25.81 445.27C26.57 449.92 28.68 452.78 32.57 454.47C37.73 456.76 61.74 457.61 71.11 455.83C77.87 454.56 84.76 452.22 90.95 448.98C93.95 447.43 96.53 446.17 96.76 446.17C96.95 446.17 97.14 447.15 97.14 448.37C97.14 452.36 98.5 466.14 99.02 467.5C99.3 468.25 100.23 469.66 101.13 470.64C102.02 471.63 104.55 475.15 106.71 478.48C111.02 484.99 114.16 488.23 118.1 490.15C120.26 491.23 120.77 491.79 122.23 494.51C123.12 496.2 124.01 498.36 124.2 499.3C124.53 500.75 125.98 502.06 136.76 510.74C157.3 527.15 165.79 533.2 175.03 538.03C182.02 541.69 187.17 543.42 195.24 544.92C203.96 546.52 207.62 547.46 212.83 549.52C215.22 550.46 219.11 551.54 221.5 551.91C230.32 553.36 231.54 553.65 234.77 555.19C236.6 556.04 238.57 557.3 239.18 557.96C240.3 559.18 240.3 559.18 239.46 561.06C238.66 562.79 238.48 562.93 236.69 562.93C234.35 562.93 226 561.95 214.84 560.31C199.04 558.01 195.01 559.04 185.91 567.76C177.37 576.01 171.98 583.19 170.34 588.44C169.07 592.57 168.79 596.55 169.26 603.54C169.68 609.31 169.82 609.97 171.47 613.3C175.22 620.85 178.92 621.03 192.33 614.28C201.76 609.54 202.32 609.31 207.34 608.89C209.78 608.7 212.97 608.14 214.37 607.67C217.05 606.82 217.47 606.82 237.12 607.06C243.26 607.15 248.37 606.82 259.62 605.65C267.64 604.85 275.29 603.96 276.65 603.68C278.05 603.4 283.96 601.34 289.78 599.04C303.14 593.88 302.91 593.93 315.9 590.83C325.37 588.54 326.82 588.07 328.09 586.89C329.64 585.39 331.51 584.5 333.2 584.5C335.31 584.5 338.97 585.91 340.8 587.46C341.92 588.44 343.38 589.19 344.6 589.38C345.67 589.57 347.97 590.41 349.75 591.26C353.51 593.04 356.93 594.12 361.15 594.77C366.73 595.66 390.88 597.54 413.43 598.8C420.42 599.18 426.8 599.7 427.64 599.93C428.49 600.16 430.46 601.2 432.1 602.18C434.54 603.64 435.52 603.96 438.1 604.1C441.57 604.34 447.48 603.54 448.84 602.7C450.11 601.9 451.18 598.99 451.51 595.52C451.89 591.49 450.81 588.21 447.76 583.99C446.35 582.06 444.24 578.55 442.98 576.16C441.29 572.87 439.55 570.48 435.94 566.5C433.32 563.54 431.02 560.96 430.83 560.68C430.13 559.51 433.51 558.15 440.82 556.6C450.48 554.58 454.75 553.41 458.41 551.72C461.17 550.5 485.28 534.7 488.46 532.08C489.26 531.42 492.92 528.09 496.62 524.67C500.38 521.15 504.92 517.4 506.94 516.18C511.25 513.51 517.16 508.58 524.06 501.97C531.75 494.56 534.89 489.59 537.05 481.57C537.89 478.34 538.08 475.85 538.41 463.75C538.83 449.96 539.02 447.34 539.86 446.82C540.09 446.68 541.5 447.29 543 448.18C552.52 453.95 562.65 456.95 567.76 455.59C568.84 455.31 571.14 454.14 572.92 452.97C573.13 452.82 574.19 452.12 576.11 450.86C579.23 450.91 580.97 450.94 581.31 450.95C588.11 451.04 589.43 450.43 592.15 445.98C593.74 443.35 596.6 440.54 597.73 440.54C597.87 440.54 599.74 439.69 601.9 438.66C605.51 436.97 606.03 436.51 609.4 432.38C611.42 429.94 614.61 426.42 616.53 424.64C616.76 424.43 617.92 423.35 620 421.41L620 417.56L620 413.67C617.61 413.81 616.28 413.89 616.01 413.9C612.54 414.09 611.56 414.33 608.18 416.01C605.46 417.37 603.21 418.97 600.77 421.31C598.85 423.14 596.98 424.55 596.55 424.5C595.19 424.22 594.26 420.94 592.38 409.82C589.8 394.35 588.16 389.33 584.6 386.19C580.33 382.44 577.7 383 570.39 389.33C561.48 397.07 558.76 398.66 550.88 400.68C544.31 402.32 541.27 403.87 538.69 406.87C537.66 408.09 536.25 409.21 535.59 409.35C533.58 409.78 522.04 407.43 520.87 406.35C520.35 405.84 518.29 404.85 516.37 404.15C509.28 401.62 504.22 398.66 491.04 389.42C486.54 386.28 480.82 382.34 478.29 380.7C475.33 378.78 473.32 377.09 472.52 375.92C469.85 371.89 465.96 358.66 463.89 346.75C462.02 335.87 461.74 331.79 461.74 317.44C461.78 303.42 461.78 303.33 463.7 290.01C466.42 271.44 466.85 265.48 466.47 250.38C466.28 243.4 465.96 236.08 465.67 234.07C465.02 229.14 463.28 223.89 460.94 219.9C459.06 216.76 457.61 215.17 447.34 205.27C447.04 204.99 445.56 203.55 442.88 200.96C438.83 199.95 436.58 199.38 436.13 199.27C425.25 196.55 418.69 194.63 408.98 191.3C393.88 186.14 391.63 185.44 387.83 184.69C378.08 182.86 372.92 179.39 370.39 172.96C368.93 169.26 368.56 163.73 368.89 151.91C369.07 145.72 369.36 138.68 369.59 136.29C369.96 131.27 369.87 131.42 376.11 126.21C381.41 121.76 383.19 118.89 384.88 112.19C385.86 108.25 386.19 105.72 386.19 102.39C386.24 97.93 386.19 97.75 384.17 93.85C384.04 93.58 383.37 92.24 382.16 89.82C382.61 87.85 382.86 86.76 382.91 86.54C383.75 82.74 383.89 74.02 383.14 69.8C381.88 62.67 378.73 55.45 373.39 47.52C367.2 38.33 367.01 38.1 357.44 31.06C352.33 27.26 350.27 26.19 346.75 25.39C344.08 24.78 343.7 24.45 342.86 22.11C342.83 22.02 342.67 21.6 342.39 20.84L330.06 20.84L317.68 20.84L316.46 22.62C315.27 23.97 313.72 25 311.82 25.72ZM262.2 347.22C264.36 356.08 265.44 359.46 267.74 365.04C270.64 372.07 271.21 375.03 271.44 385.58C271.72 396.46 271.16 403.12 269.47 409.45C266.66 419.95 259.81 434.44 253.76 442.46C246.49 452.22 242.18 455.54 236.83 455.54C230.69 455.54 225.67 453.06 204.62 439.41C203.97 438.98 200.7 436.84 194.82 432.99C194.62 431.24 194.51 430.28 194.49 430.08C194.3 428.49 194.07 426.47 193.88 425.63C193.86 425.52 193.79 425.01 193.65 424.08C195.28 424.22 196.18 424.3 196.37 424.31C197.91 424.45 201.62 424.69 204.67 424.83C209.82 425.11 210.15 425.06 210.15 424.22C210.15 423.66 209.17 422.67 207.48 421.5C207.3 421.38 206.43 420.77 204.85 419.67C206.94 419.31 208.09 419.1 208.32 419.06C210.9 418.64 212.45 418.59 214.33 418.97C219.91 420 223.66 419.2 232.47 414.98C236.46 413.06 238.29 411.84 240.49 409.68C248.6 401.71 253.25 389.61 255.4 370.9C255.97 365.79 257.05 346.24 257.05 340.05C257.05 338.69 257.23 338.31 257.89 338.31C258.36 338.31 259.11 338.59 259.53 338.87C260 339.25 260.98 342.34 262.2 347.22ZM438.76 417C447.1 422.48 460.56 428.02 474.11 431.44C474.22 431.47 474.73 431.61 475.66 431.86C471.39 435.52 469.01 437.55 468.53 437.96C459.81 445.42 456.15 448.09 451.89 450.25C448.23 452.12 435.43 456.48 433.65 456.48C431.54 456.48 430.93 455.4 430.32 450.67C430.13 449.35 429.57 447.24 429.05 445.98C428.16 443.68 427.36 442.37 420.75 432.66C413.86 422.48 410.9 412.68 410.15 397.4C409.82 390.97 410.29 386 411.51 383.09C411.57 382.97 411.83 382.34 412.31 381.22C414.67 386 415.99 388.66 416.25 389.19C418.41 393.6 421.27 398.85 422.63 400.91C425.72 405.7 433.88 413.76 438.76 417ZM55.87 422.39C55.87 424.13 52.4 428.06 49.54 429.66C48.28 430.32 46.35 429.19 44.38 426.47C42.65 424.03 40.4 419.76 40.4 418.83C40.4 417.75 44.48 414.28 45.7 414.28C46.31 414.28 47.85 414.79 49.17 415.45C52.12 416.95 55.87 420.84 55.87 422.39Z" id="ayMR2S5kj"></path></defs><g><g><g><use xlink:href="#ayMR2S5kj" opacity="1" fill="#dd1010" fill-opacity="1"></use><g><use xlink:href="#ayMR2S5kj" opacity="1" fill-opacity="0" stroke="#000000" stroke-width="1" stroke-opacity="0"></use></g></g></g></g></svg>